<!-- Generator: Adobe Illustrator 19.1.0, SVG Export Plug-In  -->
<svg version="1.1"
	 xmlns="http://www.w3.org/2000/svg" xmlns:xlink="http://www.w3.org/1999/xlink" xmlns:a="http://ns.adobe.com/AdobeSVGViewerExtensions/3.0/"
	 x="0px" y="0px" width="92.2px" height="66.7px" viewBox="0 0 92.2 66.7" style="enable-background:new 0 0 92.2 66.7;"
	 xml:space="preserve">
<style type="text/css">
	.st0{fill:#797979;}
	.st1{fill:#FFFFFF;}
</style>
<defs>
</defs>
<g>
	<path class="st0" d="M89.3,40.9c-0.2-0.6,0-0.8,0.3-1.3c1.9-3.6,2.7-7.8,2.6-11.8c-0.1-1.9-0.3-3.7-1-5.5c-0.4-0.9-0.9-1.8-1.6-2.5
		c-0.2-0.2-0.8-0.5-0.9-0.8c-0.3-0.5-0.2-1.3-0.4-1.9c-0.6-2.2-1.8-4.2-3.5-5.7c-1.6-1.5-3.7-2.6-5.9-2.8c-1-0.1-1.9-1-2.8-1.5
		c-1.1-0.5-2.2-0.9-3.4-1.2c-1.1-0.2-2.2-0.3-3.3-0.2c-1.3,0.1-2.5-0.9-3.7-1.4c-2.3-0.9-4.7-1.4-7.2-1.4c-1.2,0-2.6,0.4-3.5-0.3
		c-1-0.7-2.1-1.2-3.3-1.6c-2.2-0.8-4.6-1.2-7-1.1c-2.5,0.1-5,0.6-7.3,1.6c-0.5,0.2-1.1,0.6-1.6,0.7c-0.6,0.2-1.1,0-1.7,0
		c-1.2-0.1-2.5-0.1-3.7,0.1C26,2.9,21.7,4.7,18.8,7.8c-0.7,0.8-1.2,1.5-2.1,2.1c-0.9,0.6-1.7,1.3-2.5,2.1c-0.6,0.7-1.1,1.4-1.6,2.3
		c-0.2,0.3-0.3,0.7-0.5,1c-0.3,0.5-0.7,0.8-1.1,1.1C9.5,18,8.3,20,7.8,22.2c-0.1,0.5-0.2,1-0.3,1.5c-0.1,0.4,0,0.5-0.3,0.7
		c-0.1,0.1-0.3,0.2-0.5,0.3c-0.9,0.5-1.7,1.2-2.4,2c-1.5,1.6-2.5,3.7-3.1,5.8c-0.3,1-0.4,2-0.4,3.1c0,0.8,0.3,1.7,0.1,2.5
		c-1.1,3.9-1.5,8.5,0.6,12.1c0.9,1.5,2.2,2.7,3.7,3.5c0.7,0.4,1.4,0.6,2.1,0.8c0.8,0.2,1.5,0.2,2.1,0.8c1.3,1.2,2.9,2.2,4.6,2.8
		c1,0.3,2.1,0.5,3.2,0.5c0.5,0,1-0.2,1.3,0.1c0.4,0.3,0.7,0.9,1,1.2c3.2,3.5,7.8,4.9,12.5,4.4c1.2-0.1,2.3-0.3,3.4-0.6
		c0.3-0.1,0.6-0.2,0.9-0.2c0.5,0,0.3,0,0.7,0.1c0.5,0.2,1,0.6,1.5,0.8c2,1,4.3,1.7,6.5,2c2.3,0.3,4.7,0.3,6.9-0.3
		c0.5-0.1,1-0.4,1.5-0.5c0.5-0.1,0.9,0,1.4,0.1c1.2,0.2,2.4,0.3,3.6,0.2c2.2-0.2,4.3-1.2,6.1-2.4c1.5-1,2.7-2.1,4.4-2.6
		c0.8-0.2,1.5-0.6,2.3-1c0.5-0.3,1-0.6,1.4-0.9c0.2-0.2,0.4-0.4,0.6-0.6c0.4-0.4,0.4-0.5,0.9-0.6c0.6-0.1,1.4,0,2,0
		c0.8-0.1,1.7-0.2,2.5-0.4c4.2-0.9,8.2-3.4,10.2-7.3c0.9-1.7,1.3-3.7,1.2-5.6c0-0.9-0.2-1.7-0.4-2.6C89.6,41.7,89.5,41.3,89.3,40.9z
		"/>
	<g>
		<path class="st1" d="M85.8,21.7c-0.2,1.5-0.8,3-1.7,4.3c3.2-4.8,0.4-13.7-6-13.5c1,1.3,1.6,2.9,1.9,4.5c-0.6-2.1-1.7-4.2-3.5-5.6
			c-2.1-1.6-5-2.1-7.6-1.9c0.2,0.2,0.5,0.4,0.7,0.6c0.7,0.4,1.3,0.9,1.9,1.5c-0.6-0.5-1.3-1-1.9-1.5c-2.7-1.8-5.9-3-9-3.4
			c-3.6-0.5-7.3,0.3-10.4,2.2c-2.4,1.4-4.2,3.4-6.3,5.2c-0.8,0.7-1.7,1.4-2.8,1.8c-1,0.4-2.1,0.4-3.1,0.6c-3,0.5-4.4,2.6-5.2,5.4
			c0.1-1,0.3-1.9,0.7-2.8c-2.2,1-3.9,2.8-5.2,4.8c-0.6,1-1,2.1-1.7,3c-0.7,1-1.6,1.3-2.7,1.8c-4,2.2-5.5,8.1-4.4,12.3
			c0.3,1.1,0.8,2.2,1.7,2.9c0.8,0.6,1.8,0.9,2.7,1.2c2.1,0.7,3.7,2.4,6,2.6c2.1,0.2,4.6-0.5,5.8-2.4c0.3-0.4,0.5-1.6,0.8-1.8
			c0.3-0.2,1.2-0.1,1.6-0.3c0.5-0.2,1-0.5,1.4-0.9c1.5-1.4,2.1-3.8,4-4.9c1.9-1.1,4.5,0.2,5.9,1.5c-2.1-1.2-4.7-2.2-6.6-0.2
			c-1.7,1.7-2.6,4.5-5.3,5c0.4,1.4,2.3,2.7,3.8,2.4c-0.5,0.1-1,0.2-1.5,0.1c-0.6-0.1-1.2-0.4-1.7-0.8c-0.2-0.2-1.2-1.6-1.3-1.5
			c-0.6,2.8-3.1,4.5-5.9,4.6c-1,0.1-1.7-0.1-2.5,0.6c-0.7,0.7-1.2,1.7-1.5,2.6c-0.1-1.4,0.3-2.6,1.4-3.5c-1.3-0.4-2.3-1.3-3.4-2
			c-1.2-0.8-2.7-1.1-3.9-1.9c-0.6,2.8-0.9,5.7-0.4,8.6c0.6,3.4,2.7,6.4,6,7.6c3.2,1.2,6.8,0.6,9.9-0.8c-1.3-1-2.5-2.6-2.8-4.3
			c-1.9,1.9-4.5,3.2-7.2,2.4c3,0,5.6-1.8,7.7-3.7c0.6,4,4.2,6.8,7.8,8.1c3.4,1.2,7.4,1.1,10.8-0.2c-0.8-0.6-1.2-1.6-1.2-2.6
			c-1.6,0.7-3.5,0.5-5.2,0.2c2.7,0,6.5-0.7,8.1-3.1c-0.3,0.5-0.6,1-0.9,1.4c-0.3,0.3-0.6,0.6-0.9,0.9c-0.2,0.1-1,0.5-1.1,0.6
			c-0.2,0.5,0.7,1.5,1.1,1.8c0.6,0.5,1.3,0.8,2,1c3.5,0.9,6.9-0.9,9.6-2.9c0.8-0.6,1.6-1,2.6-1.4c1.2-0.5,2.7-0.7,3.6-1.7
			c0.6-0.6,0.9-1.4,1.1-2.2c0.1-0.3,0.1-1.2,0.3-1.4c0.2-0.2,1.1-0.3,1.3-0.5c0.3-0.1,0.6-0.3,0.9-0.5c0.5-0.3,1-0.8,1.3-1.3
			c1.5-2.1,1.1-4.8,0.8-7.2c-1.6,0.3-3.2-0.1-4.7-0.4c3.1,0.3,5.7-0.1,8.4-1.7c-0.8,0.7-1.6,1.4-2.6,1.8c-0.3,0.1-0.5,0.1-0.5,0.4
			c0,0.2,0.2,0.6,0.2,0.8c0.1,0.5,0.2,1,0.2,1.6c0,0.5-0.1,0.4,0.3,0.6c0.2,0.1,0.5,0.1,0.7,0.2c0.3,0.1,0.7,0.3,1,0.5
			c0.4,0.3,0.8,0.7,1.2,1.1c-0.5-0.5-1.1-0.8-1.8-0.9c-0.3,0-0.8-0.1-1.1,0c-0.4,0.1-0.3,0.2-0.3,0.7c-0.1,0.5-0.2,0.9-0.4,1.3
			c-0.6,1.4-1.6,2.6-2.8,3.4c-0.3,0.2-0.7,0.4-1,0.6c0,0-0.4,0.2-0.5,0.2c-0.1,0.2-0.1,1-0.1,1.2c3.7,0.5,7.9,0,10.8-2.6
			c2-1.7,3-4.2,3-6.8c0-0.7,0-1.5-0.2-2.2c-0.1-0.6-0.6-1.7-0.5-2.2c-0.4,0.5-0.9,0.9-1.5,1.2c2.4-2.5,3.7-6.1,4.4-9.5
			C89,29.4,89.9,22.6,85.8,21.7z M30.1,29.7c-0.2-2.5,0.6-4.9,3.2-5.7c1.9-0.6,3.9-0.3,5.8,0c-2.2-0.2-4.7-0.1-6.4,1.4
			c-1.6,1.4-2,3.5-2,5.5c-1-1.2-3-1.2-4.4-0.9C27.4,29.3,28.8,29.1,30.1,29.7z M45.9,30.2c-1.5,0.5-3,0.1-4.5,0.1
			c-1.5,0.1-2.3,0.9-2.8,2.3c-0.5,1.4-0.9,2.8-2.6,3.1c1,1.5,1,3.6-0.3,4.9c-0.5,0.4-1,0.7-1.6,0.8c-0.7,0.2-1.6-0.1-2.3,0.2
			c-0.7,0.3-1.4,1.2-1.6,2c0.1-0.9,0.6-1.7,1.3-2.2c-1.9-0.4-3.7-1.5-5.3-2.6c2.1,1.4,5.6,2.7,8,1.4c1.1-0.6,1.5-1.7,1.5-2.9
			c0-0.4-0.1-0.8-0.1-1.2c-0.1-0.7,0-0.5,0.6-0.8c0.6-0.3,1.1-0.8,1.4-1.4c0.5-1,0.5-2.3,1.2-3.3c0.9-1.2,2.6-1.1,3.9-1.1
			c1.3,0,3.1,0.2,4-0.9c0.7-0.9,0.7-2.3,0.4-3.3c-0.5-1.6-2.2-3.3-3.9-3.4c1.1-1.3,0-3.7-1.6-4c1.2,0.2,2.5,0.8,2.7,2.1
			c0.1,0.7-0.2,1.7-1,1.8c0.1,0,0.2,0,0.3,0c-0.1,0,0,0,0.1,0c-0.2-0.1,0.7,0.1,0.8,0.2c0.3,0.1,0.6,0.2,0.8,0.3
			c0.6,0.3,1.1,0.7,1.6,1.1c0.3,0.3,0.5,0.6,0.7,0.9c0.2,0.4,0.2,0.8,0.7,0.9c1.5,0.4,3.3-1.3,3.7-2.7c0.5-1.7-0.7-3.2-2-4.2
			c1.9,1.2,3.2,3.3,1.9,5.5c-0.8,1.3-2.2,2.4-3.7,2.3C48.7,27.7,47.2,29.7,45.9,30.2z M55.3,40c0.1-3.8-3.3-7.1-6.8-7.8
			c1.1,0.2,2.2,0.5,3.1,1c0.5,0.2,0.9,0.5,1.4,0.9c0.3,0.2,0.3,0.3,0.7,0.3c0.3,0,0.6-0.3,0.8-0.4c2.3-1.4,2.4-4,1.9-6.3
			c0.3,0.5,0.4,1,0.6,1.4c1-1.9,2.3-4.1,4.3-5.1c0.5-0.2,0.8-0.1,0.9-0.7c0-0.5-0.2-1.2-0.4-1.6c-0.4-1.1-1.1-2.1-1.9-3
			c-0.4,0.6-0.9,1.1-1.5,1.5c1.7-1.8,2.2-4.8,0.4-6.8c-1.9-2.1-5-1.2-7.2-0.1c2.5-2.6,7.9-2.5,9,1.4c2.8-1.8,6.1-2.1,8.3,0.7
			c0.5,0.7,0.9,1.4,1.1,2.3c0.3,1.2-0.1,4.3,1.5,4.9c-1.6-0.2-1.5-3.5-1.8-4.6c-0.7-2.3-2.7-3.7-5.1-3.6c-1.1,0-2.2,0.5-3.2,1
			c-0.2,0.1-0.5,0.2-0.6,0.4c-0.1,0.2-0.1,1.1-0.1,1.4c-0.1,0.2-0.1,0.5-0.2,0.7c-0.3,0.2-0.2,0.4,0.1,0.5c0.2,0.3,0.6,0.5,0.8,0.8
			c0.8,1.1,1.4,3.1,1,4.6c1.3-0.2,2.8,0.5,3.6,1.5c0.7,0.8,0.9,2,1.1,3.1c0.2,0.9,0.3,2,1,2.8c0.8,1,2.1,0.8,3.2,0.5
			c-0.9,0.4-2.1,0.8-3,0.3c-0.9-0.5-1.4-1.5-1.7-2.4c-0.6-1.9-0.8-4.2-3.1-4.8c-1.5-0.4-2.9,0.6-3.9,1.6c-0.9,0.9-1.6,2-2.1,3.1
			c-0.3,0.6-0.1,1.3-0.2,2c-0.3,1.8-1.7,2.9-3.3,3.6c2,2.1,2.7,5.8,0.9,8.3c-1.5,2.1-4.6,2.8-6.9,1.7c0.1,0.6-0.1,1.3-0.3,1.9
			c0.3-1,0.1-2.2-0.7-2.9C50.1,45.9,55.1,44.3,55.3,40z M67.4,48.9c-0.2,0.4-0.5,0.7-0.8,1c-0.3,0.3-0.8,0.6-1.1,0.9
			c-0.2,0.3-0.2,0.1-0.2,0.5c0,0.3,0.1,0.5,0.1,0.8c-0.1,1.5-1.1,2.7-2.3,3.5c1.6-2.1,2-4.8,0.8-7.2c0.6,0.7,1.1,1.5,1.4,2.3
			c1.3-1.2,2.2-3.2,1.3-5c-0.5-1-1.7-1.8-2.8-2c-1.4-0.3-2.4,0.4-3.2,1.5c-1.4,1.9-2.7,4.3-4.9,5.4c-0.5,0.2-1,0.4-1.6,0.4
			c-0.3,0-0.6-0.1-1-0.1c-0.1,0-0.3-0.1-0.4-0.1c-0.1,0-0.5,0.7-0.6,0.8c-0.9,1.2-2.1,2.2-3.4,2.8c-2.8,1.1-5.3-1-6.3-3.6
			c1.4,2.8,4.2,3.6,6.9,2.3c0.9-0.5,1.9-1.1,2.5-1.9c0.1-0.2,0.3-0.7,0.4-0.9c0.2-0.2,1.6-0.1,2-0.2c4.7-1,5.4-8.9,11-6.8
			C67.3,44.2,68.5,46.9,67.4,48.9z M79.3,32.2c-0.2,2-1.7,3.4-3.2,4.6c-1.1,0.8-2.3,1.4-3.7,1.4c-2.3,0.1-4.4-1.1-6.5-1.7
			c-0.7-0.2-1.5-0.3-2.3-0.4c-0.1,0-0.3-0.1-0.5,0c-0.4,0.1-0.2,0-0.4,0.3c-0.2,0.2-0.3,0.6-0.4,0.9c-0.5,0.8-1.2,1.3-2,1.7
			c1.5-2.1,2.5-3.8,2.4-6.5c0.1,0.4,0.2,0.9,0.2,1.3c0,0.4-0.1,1.2,0,1.5c0.1,0.3,0.3,0.2,0.7,0.3c0.4,0.1,0.7,0.2,1,0.3
			c0.7,0.2,1.4,0.5,2.2,0.7c2,0.7,4.2,1.5,6.3,0.8c3-0.9,5.9-4.8,4.8-8c-0.5-1.5-1.8-2.8-3.2-3.5c1.9-0.5,3.9-1.6,4.7-3.5
			c-0.6,1.6-1.8,3-3.4,3.6C78,27.4,79.5,29.8,79.3,32.2z M86.2,28.9c-0.1,0.1-0.2,0.2-0.5,0.2c-0.5,0.2-1.1,0.4-1.7,0.4
			c0.9,1.6,0.2,3.7-0.8,5.1c0.9-1.6,0.8-4-0.1-5.7c0.3,0,1.8,0.3,2.7,0.2C85.9,29,86.1,29,86.2,28.9c0.1,0,0.1,0,0.2-0.1
			c0.1,0,0.1-0.1,0.2-0.1C86.6,28.8,86.3,28.9,86.2,28.9z"/>
		<path class="st1" d="M19.1,46.1c0.1-0.6,0.6-1.7,0.5-2.2c-0.1-0.6-0.7-1.3-0.9-1.9c-0.2-0.7-0.4-1.4-0.6-2.1c-0.3-1.6-0.4-3.3,0-5
			c0.3-1.7,1.2-3.3,2.3-4.6c1-1.2,2.2-1.9,3.4-2.6c2.2-1.3,2.7-3.5,4-5.5c0.9-1.3,2-2.4,3.3-3.4c0.4-0.3,0.4-0.3,0.5-0.7
			c0.1-0.4-0.1-0.9-0.2-1.3c-0.2-0.6-0.5-1.2-0.9-1.7c0.9,0.8,1.3,1.9,1.5,3.1c0.4-0.3,1-0.4,1.5-0.7c0.8-0.6,1.2-1.3,2.2-1.8
			c1.4-0.6,3.1-0.5,4.6-0.9c1.4-0.4,2.4-1.2,3.4-2.3c0.6-0.7,1.6-1.5,1.7-2.5c0.2-0.9,0.1-1.7-0.1-2.5c0.3,0.8,0.6,1.6,0.6,2.5
			c2.3-2.2,5.4-3.3,8.5-3.8C50,3.2,44.8,2.3,39.9,4.1c-2.8,1-5.4,2.8-7.3,5.1c0.7,0.3,1.2,0.9,1.6,1.5c-1.1-1.1-2.8-1.5-4.3-1.5
			c0.4-0.1,0.8-0.2,1.2-0.2c0.2,0,0.4,0,0.6,0C32,9.1,32.1,9,32.2,8.8c0.1-0.1,0.2-0.2,0.3-0.4c0.9-1.2,2.1-2.1,3.3-2.9
			c-0.8-0.4-2.1-0.2-2.9-0.2c-1.1,0.1-2.1,0.2-3.2,0.5c-3.5,0.8-7.1,2.5-9.4,5.3c0.7-0.3,1.4-0.5,2.1-0.7c-1.3,0.5-2.6,1.1-3.7,1.9
			c-1.5,1.1-2.5,2.7-3.3,4.4c2.1-0.9,4.4-0.8,6.5-0.1c0.5-2.8,1.7-5.1,4.5-6.2c-1.6,1-2.5,2.4-3.1,4.1c-0.2,0.6-0.3,1.2-0.5,1.8
			c-0.1,0.4-0.2,0.5,0,0.8c0,0,0.6,0.4,0.5,0.3c0.7,0.6,1.3,1.3,1.7,2.1c1.5,3.5-0.8,7.7-4.8,7.6c1.3-0.4,2.7-0.9,3.6-1.9
			c0.9-1,1.2-2.5,1.1-3.8c-0.1-2.6-2.3-4.1-4.6-4.5c-1.9-0.4-3.9,0.2-5.5,1.2c-1.7,1.1-3,2.8-3.6,4.8c-0.1,0.4-0.2,0.9-0.2,1.4
			c0,0.3-0.1,1.6,0.2,1.8c0.2,0.1,1.1,0,1.3,0.1c0.4,0.1,0.8,0.2,1.1,0.4c0.8-2.3,2.6-4,5.1-4.3c-3.2,1.4-4.9,4.8-5.6,8
			c0-0.5,0-1,0.1-1.5c0-0.2,0.3-1.3,0.2-1.4c-0.2-0.3-1.3-0.3-1.6-0.3c-0.4,0-0.9,0-1.3,0.1c-2.3,0.5-4,2.4-5.1,4.4
			c-1.2,2.3-1.6,4.7-0.8,7.2C5,40.2,6.2,42,5.3,43.5c0.1-1.8-0.7-3.5-1.3-5.2c0,0.6-0.4,1.4-0.6,2c-0.2,0.8-0.3,1.6-0.3,2.5
			c-0.1,1.6,0.2,3.2,0.6,4.8c0.5,1.7,2.3,3.1,3.9,3.7c1.7,0.7,3.6,0.4,4.9-1c1.1-1.3,1.9-3.2,1.5-4.9c-0.4-2.1-2.1-3.7-2.8-5.7
			c-0.1-0.4-0.2-1.1-0.4-1.4c-0.3-0.4-1-0.7-1.3-1.1c-0.5-0.6-0.8-1.2-1-1.9c1.5,1.5,2.8,2.7,4.7,3.5c-0.7,0-1.4-0.1-2-0.4
			c0.6,2.2,2.2,3.8,3.1,5.8c0.5,1.1,0.5,2.1,0.3,3.3c-0.4,2.1-1.8,4.3-4.1,4.8c2.3,2.7,5.4,3.2,8.8,2.6c-0.5-2-0.9-4.1-0.8-6.2
			C18.8,47.7,18.9,46.9,19.1,46.1z"/>
	</g>
</g>
</svg>
