<!-- Generator: Adobe Illustrator 18.1.1, SVG Export Plug-In  -->
<svg version="1.1"
	 xmlns="http://www.w3.org/2000/svg" xmlns:xlink="http://www.w3.org/1999/xlink" xmlns:a="http://ns.adobe.com/AdobeSVGViewerExtensions/3.0/"
	 x="0px" y="0px" width="151.8px" height="151.8px" viewBox="0 0 151.8 151.8" enable-background="new 0 0 151.8 151.8"
	 xml:space="preserve">
<defs>
</defs>
<g id='gavel'>
	<g>
		<g>
			<path fill="#056BCD" d="M75.9,151.8C34.1,151.8,0,117.8,0,75.9S34.1,0,75.9,0c41.9,0,75.9,34.1,75.9,75.9S117.8,151.8,75.9,151.8
				z M75.9,4.2C36.4,4.2,4.2,36.4,4.2,75.9s32.2,71.7,71.7,71.7s71.7-32.2,71.7-71.7S115.5,4.2,75.9,4.2z"/>
		</g>
		<path fill="#056BCD" d="M69.9,53.8l-0.2-0.1l0.6-0.8c0.9-1.2,0.6-3-0.6-3.9L57.5,40c-1.2-0.9-3-0.6-3.9,0.6L53,41.4l-0.2-0.1
			c-1.2-0.9-2.9-0.7-3.8,0.5c-0.8,1.2-0.5,2.8,0.7,3.7l0.2,0.1l-2,2.8l-0.1-0.1c-1.2-0.9-3-0.6-3.9,0.6l-9.8,13.4
			c-0.9,1.2-0.6,3,0.6,3.9l0.1,0.1l-2,2.8L32.6,69c-1.2-0.9-2.9-0.7-3.8,0.5c-0.8,1.2-0.5,2.8,0.7,3.7l0.2,0.1l-0.6,0.8
			c-0.9,1.2-0.6,3,0.6,3.9l12.2,8.9c1.2,0.9,3,0.6,3.9-0.6l0.6-0.8l0.2,0.1c1.2,0.9,2.9,0.7,3.8-0.5c0.8-1.2,0.5-2.8-0.7-3.7
			l-0.2-0.1l2-2.8l0.1,0.1c1.2,0.9,3,0.6,3.9-0.6l9.8-13.4c0.9-1.2,0.6-3-0.6-3.9l-0.1-0.1l2-2.8l0.2,0.1c1.2,0.9,2.9,0.7,3.8-0.5
			C71.4,56.4,71.1,54.7,69.9,53.8z"/>
		<path fill="#056BCD" d="M82.4,82c-7-3.8-14.1-9.9-16.4-11.9l-4.1,5.7c2.6,1.6,10.5,6.5,16.3,12c7,6.7,16.5,21.4,34,24.5l3.9-5.3
			C107.8,91.3,91,86.7,82.4,82z"/>
	</g>
</g>
</svg>
