<!-- Generator: Adobe Illustrator 18.1.1, SVG Export Plug-In  -->
<svg version="1.1"
	 xmlns="http://www.w3.org/2000/svg" xmlns:xlink="http://www.w3.org/1999/xlink" xmlns:a="http://ns.adobe.com/AdobeSVGViewerExtensions/3.0/"
	 x="0px" y="0px" width="151.8px" height="151.8px" viewBox="0 0 151.8 151.8" enable-background="new 0 0 151.8 151.8"
	 xml:space="preserve">
<defs>
</defs>
<g>
	<g>
		<g>
			<g>
				<path fill="#056BCD" d="M69.5,71.2v2.4c2.1,0.2,4,1.1,4.5,1.4l-1.3,2.5c-0.5-0.2-0.9-0.4-1.4-0.6c-0.8-0.3-1.9-0.6-2.7-0.6
					c-1.4,0-2.6,0.5-2.6,1.8c0,1.6,1.2,2.4,3.5,3.2c3,1.2,4.8,2.5,4.8,5.3c0,2.4-1.7,4.8-4.7,5.4v3h-2.5v-2.9
					c-2.6-0.2-4.6-1.3-5.3-1.8l1.3-2.7c0.6,0.3,1.2,0.6,1.7,0.9c0.9,0.5,2.1,0.9,2.9,0.9c2,0,3-0.8,3-2.5c0-1.7-1.1-2.1-2.9-2.7
					c-3.4-1.3-5.4-2.8-5.4-5.7c0-2.3,1.9-4.3,4.7-4.8v-2.4H69.5z M68.1,67.9c-7.3,0-13.2,6.9-13.2,15.5C54.9,92,60.8,99,68.1,99
					c7.3,0,13.2-7,13.2-15.5C81.3,74.9,75.4,67.9,68.1,67.9z"/>
			</g>
			<g>
				<path fill="#056BCD" d="M123.5,41.5H48.3c-2.6,0-4.8,2-5,4.5h71.1l0.1,0h9.1c0.3,0,0.5,0.3,0.5,0.5v38.7l0,0v5
					c2.5-0.3,4.5-2.4,4.5-5.1V46.6C128.6,43.8,126.3,41.5,123.5,41.5z"/>
			</g>
			<g>
				<path fill="#056BCD" d="M115,49.9H39.7c-2.6,0-4.8,2-5,4.5h61.7l0,0H115c0.3,0,0.5,0.3,0.5,0.5v38.7l0,0v5
					c2.5-0.3,4.5-2.4,4.5-5.1V55C120.1,52.2,117.8,49.9,115,49.9z"/>
			</g>
			<g>
				<path fill="#056BCD" d="M30.6,59.1c-2.8,0-5.1,2.3-5.1,5.1v38.7c0,2.8,2.3,5.1,5.1,5.1h75.2c2.8,0,5.1-2.3,5.1-5.1V75.1
					l-16.3-16H30.6z M96.7,72.9v-5.7l5.8,5.7H96.7z M30,64.1c0-0.3,0.3-0.5,0.5-0.5h61.6v13.9h14.2v25.4c0,0.3-0.3,0.5-0.5,0.5H30.6
					c-0.3,0-0.5-0.3-0.5-0.5V64.1z"/>
			</g>
		</g>
		<g>
			<path fill="#056BCD" d="M75.9,151.8C34.1,151.8,0,117.8,0,75.9C0,34.1,34.1,0,75.9,0c41.9,0,75.9,34.1,75.9,75.9
				S117.8,151.8,75.9,151.8z M75.9,4.2C36.4,4.2,4.2,36.4,4.2,75.9s32.2,71.7,71.7,71.7s71.7-32.2,71.7-71.7S115.5,4.2,75.9,4.2z"/>
		</g>
	</g>
</g>
</svg>
