<!-- Generator: Adobe Illustrator 19.1.0, SVG Export Plug-In  -->
<svg version="1.1"
	 xmlns="http://www.w3.org/2000/svg" xmlns:xlink="http://www.w3.org/1999/xlink" xmlns:a="http://ns.adobe.com/AdobeSVGViewerExtensions/3.0/"
	 x="0px" y="0px" width="58.7px" height="96.3px" viewBox="0 0 58.7 96.3" style="enable-background:new 0 0 58.7 96.3;"
	 xml:space="preserve">
<style type="text/css">
	.st0{fill:#797979;}
	.st1{fill:#FFFFFF;}
</style>
<defs>
</defs>
<g>
	<path class="st0" d="M58.5,61.8c-0.2-2.4-0.7-4.8-1.2-7.1c-0.7-3-1.6-6.1-3.3-8.7c-0.4-0.6-0.9-1.2-1.4-1.7
		c-0.4-0.4-0.6-0.4-0.4-0.9c0.1-0.4,0.4-0.8,0.5-1.2c0.6-1.4,1-2.8,1.2-4.3c0.3-3-0.3-6.5-2.1-9c3.8-1.5,2.4-7.9-0.4-9.7
		c-1.3-0.8-3.2-0.6-4.7-0.4c-0.1,0-1,0.2-1.1,0.2c0,0-0.1-0.5-0.2-0.6c-0.2-0.4-0.3-0.9-0.6-1.3c-0.5-0.9-1.1-1.5-1.8-2.2
		c-1-0.9-2-1.6-2.4-2.9c-0.5-1.9,0-3.8-0.2-5.7c-0.1-0.9-0.3-1.7-0.9-2.4c-0.2-0.3-0.5-0.5-0.8-0.7c-0.1-0.1-0.3-0.1-0.4-0.2
		c-0.3-0.2-0.2-0.2-0.3-0.4c-0.9-1.5-2-2.4-3.8-2.5c-1.6-0.1-3.5,0.4-4.4,1.9c-0.9,1.3-0.6,3.2-0.7,4.7c-0.2-0.8-0.6-1.8-0.7-2.6
		c-0.1-0.9,0-1.5-0.6-2.2c-0.9-1.2-2.6-1.6-4-1.4c-1.5,0.2-3.2,0.9-4,2.2c-0.9,1.5,0,2.7,0.2,4.2c-0.7-0.2-1.6-0.2-2.3,0
		c-0.3,0.1-0.5,0.3-0.8,0.4c-0.4,0.2-0.4,0.2-0.9,0.1c-1.3-0.1-2.7,0.1-3.9,0.7c-1.8,0.9-3.6,2.8-3.2,5c0.1,0.6,0.4,1,0.5,1.5
		c0.2,0.5,0.4,1.1,0.6,1.6c0.7,2.2,1.3,4.4,1.6,6.6c0.2,1.2,0.3,2.4,0.4,3.6c0,0.4,0.2,1.6,0,2c-0.1,0.2-0.6,0.3-0.7,0.4
		c-1.7,1-3.3,2.3-4.7,3.7C4.1,35,2.3,38,1.3,41.4c-1.4,4.4-1.5,9.1-0.9,13.6c0.2,1.3,0.3,2.6,0.7,3.8c0.4,1.1,0.8,2.3,1.3,3.4
		c0.9,2.4,1.8,4.7,2.9,7c0.6,1.3,1.4,2.7,2.1,4c0.4,0.7,0.6,1,0.6,1.8c0,0.6,0,1.2,0,1.8c-0.1,2.2-0.1,4.4-0.1,6.7
		c0,2.1-0.1,4.2,0.2,6.3c0.1,0.5,0.1,1.1,0.4,1.6c0.9,1.6,3,1.7,4.6,1.7c1.9,0,4-0.1,5.2-1.7c0,1.1-0.1,2.4,0.5,3.4
		c0.8,1.5,2.6,1.7,4.1,1.7c1.8,0,4,0.2,5.2-1.4c1.1-1.4,1-3.3,1-4.9c6.7,2.5,14.9,4.6,21.3,0c4.5-3.2,6.6-8.7,7.6-13.9
		C58.8,71.5,58.9,66.5,58.5,61.8z"/>
	<g>
		<path class="st1" d="M23.7,6c-0.1,0-0.2,0-0.3,0c-0.5,0-1-0.1-1.4-0.3c0.1,0.9,0.3,2,0.4,2.8c0.1,0.6,0.2,1.3,0.3,2
			c0.1,0.2,0.2,0.4,0.4,0.6c1,1.6,1.6,3.6,1.8,5.2c0.7-0.7,1.4-1.3,2.1-1.9c0.1-0.1,0.2-0.2,0.3-0.3c0.4-0.3,0.8-0.6,1.1-0.9
			c-0.2-1.3-0.5-2.5-0.7-3.6c-0.4-1.7-0.7-3.4-1.1-5c-0.4,0.5-0.9,0.8-1.6,1.1C24.6,5.9,24.1,6,23.7,6z"/>
		<path class="st1" d="M24.4,18.9c-0.1,0.1-0.2,0.3-0.4,0.4c-0.1,0.1-0.2,0.3-0.4,0.4c-0.5,0.6-1,1.2-1.4,1.8c-0.5,1-0.9,2-1.2,3
			c-1.4,4.3-1.3,9.1-0.1,13.4c0.1,0.4,0.2,0.8,0.4,1.1c0.6-0.1,1.1-0.2,1.7-0.2c0.8-2.1,1.7-4.2,2.9-6.1c0.8-1.4,1.8-2.7,3.1-3.7
			c-0.4-1.3-0.7-2.6-0.9-4c-0.1-0.8-0.2-1.8,0.3-2.5c0.5-0.8,1.6-1.5,2.5-1.7c1.2-0.4,2.3,0.3,2.9,1.2c1,1.5,4.3,0.1,5.6-0.3
			c0.9-0.3,1.8-0.6,2.8-0.9c0.3-0.1,0.7-0.2,1-0.3c-0.2-1.2-0.6-2.3-1.4-3.1c-1.2-1.3-2.7-2.3-3.3-4c-0.5-1.7-0.4-3.4-0.3-5.1
			c0.1-0.9,0.3-2.3-0.4-3.1c-0.4-0.4-0.8-0.4-1.3-0.5c0.1,0.3,0.1,0.6,0.1,0.8c0.1,0.4,0.1,0.7,0.1,1.1c0,0.2,0,0.5,0,0.7
			c0,0.4,0,0.8,0,1.2c0,0.3,0.1,1.8,0.1,2.9c0,0.7-0.1,1.3-0.3,1.4c-0.2-1.6-0.4-3.2-0.6-4.8c-0.1-0.6-0.1-1.2-0.2-1.8
			c0-0.3,0-0.6,0-0.9c-0.2,0.1-0.3,0.2-0.5,0.3C34.9,5.9,34.3,6,33.7,6c-0.3,0-0.6,0-0.9-0.1c-0.6-0.1-1.2-0.4-1.6-0.8
			c0.1,1.6,0,3.2-0.1,4.8c-0.1,1.3-0.2,2.9-1.2,3.8c-0.2,0.2-0.4,0.4-0.6,0.6c-0.1,0.1-0.2,0.2-0.4,0.3c-0.1,0-0.1,0.1-0.2,0.2
			c-0.1,0-0.1,0.1-0.2,0.1c-1.1,1-2.3,2-3.3,3.1C25,18.3,24.7,18.6,24.4,18.9z"/>
		<path class="st1" d="M9.7,44.6c0.5-0.3,1-0.6,1.5-0.9c0.2-1.7,0.4-3.4,0.7-5c-0.3,0.8-0.8,1.4-1.4,1.9c0.1,0,0.2,0,0.2-0.1
			c-0.9,1-2,1.9-3.1,2.8C7,43.8,6.4,44.4,6,45c-0.3,0.4-0.4,0.9-0.6,1.2c0-1.3,1.4-2.6,2.3-3.5c0.4-0.4,0.9-1,1.5-1.5
			c-1.5,0.6-3.6,1-3.7,3c-0.3-0.5,0.4-1.6,0.8-2c0.7-0.7,1.7-1,2.6-1.4c0.6-0.2,1.1-0.6,1.5-1c0.7-0.6,1-1.4,1.6-2
			c0.1-1,0.3-2,0.5-3c-1,1.2-2.6,2.4-4,2.9c0.1-0.2,0.5-0.4,0.8-0.5c0.5-0.4,1-0.8,1.4-1.2c0.5-0.5,1.2-1.3,1.9-1.8
			c0-0.2,0.1-0.5,0.1-0.7c0.1-0.5,0.2-1.1,0.3-1.6c0.1-0.8,0.2-1.5,0.3-2.3C5,34,1.8,43.3,2.4,52c0.1-0.1,0.1-0.2,0.1-0.3
			c0.3-0.6,0.7-1.2,1.1-1.8C5.3,47.8,7.5,46,9.7,44.6z"/>
		<path class="st1" d="M11.9,77.5c-0.1-0.1-0.2-0.2-0.3-0.3c-0.6-0.7-1.1-1.3-1.6-2c0,1.4,0,2.8,0,4.2c0,1.7,0,3.4,0,5.1
			c0,1.3,0,2.6,0.1,3.9c0,0.5,0,1.2,0.2,1.6c0.4,0.9,3.6,0.5,4.4,0.4c1.7-0.2,2-1.5,2-3c0-1.8,0-3.6,0.1-5.4
			c-0.4-0.3-0.7-0.6-1.1-0.8C14.4,80.1,13.1,78.9,11.9,77.5z"/>
		<path class="st1" d="M26.7,87.6c-0.3-0.1-0.6-0.2-0.9-0.4c-0.1,0-0.2-0.1-0.3-0.1c-1.3-0.6-2.5-1.2-3.8-1.9
			c-0.6-0.3-1.1-0.6-1.7-1c0.1,1.8,0.1,3.6,0.2,5.3c0,1-0.2,3.4,0.4,4c0.9,0.8,3.2,0.3,4.4,0.3c1.9-0.1,1.6-3,1.6-4.5
			C26.7,88.9,26.7,88.3,26.7,87.6z"/>
		<path class="st1" d="M13.3,14.7c-0.6,0-1.2-0.1-1.7-0.4c2,4.9,3.3,10.6,2.6,15.9c0,0,0,0,0,0c0,0,0,0,0,0c0,0.1,0,0.2,0,0.2
			c0,0,0,0,0,0c0,0.1,0,0.2,0,0.3c0,0.2-0.1,0.5-0.1,0.7c-0.5,3.3-1.2,6.5-1.7,9.8c-0.1,0.4-0.1,0.9-0.2,1.4c0,0.2,0,0.3-0.1,0.5
			c0.1-0.1,0.2-0.1,0.3-0.2c0.1-0.1,0.2-0.1,0.3-0.2c2-1.1,4.1-2.1,6.3-3c0,0,0,0,0,0c0.1,0,0.1,0,0.2-0.1c0.1,0,0.2-0.1,0.3-0.1
			c0.5-0.2,1-0.3,1.5-0.4c-0.9-2.3-1.4-4.7-1.6-7.1c-0.1-1.1-0.1-2.1,0-3.2c0.2-2.9,1.1-5.6,2.5-8.2c0.2-0.4,0.4-0.8,0.7-1.1
			c-0.3,0-0.5-0.1-0.8-0.1c-2-0.6-3.5-3.2-4.2-4.9c-0.1-0.3-0.3-0.8-0.4-1.2c-1,0.9-2.5,1.3-3.7,1.4C13.3,14.7,13.3,14.7,13.3,14.7z
			"/>
		<path class="st1" d="M11.6,13.3c0.1,0.1,0.2,0.1,0.3,0.2c0.3,0.2,0.7,0.3,1.1,0.3c0.1,0,0.1,0,0.2,0c1.2,0,2.7-0.5,3.6-1.5
			c-0.1-0.4-0.1-0.8-0.1-1.2c0-0.2,0-0.4,0-0.5c0,0,0-0.1,0-0.1c0,0,0-0.1,0-0.1c0-0.1,0-0.2,0-0.3c-0.4-0.3-1-0.4-1.5-0.4
			c-1.4,0-3.4,0.7-4,2.1c-0.2,0.6-0.1,1,0.2,1.3C11.5,13.1,11.6,13.2,11.6,13.3z M16.3,10.5c0,0,0.1,0.1,0.1,0.1c0,0,0,0,0,0.1
			c0,0.1,0.1,0.2,0.1,0.2c0,0,0,0.1,0,0.1c0.3,1.5-2.3,2.6-3.7,2.2c-0.1,0-0.2-0.1-0.3-0.2c0,0,0,0,0,0c-0.1,0-0.1-0.1-0.2-0.1
			c0,0,0,0,0,0c-0.1-0.1-0.1-0.1-0.2-0.2c-0.1-0.1-0.1-0.2-0.1-0.3C11.4,10.7,15.1,9.3,16.3,10.5z"/>
		<path class="st1" d="M17.6,10.8c0,0.3,0,0.7,0.1,1c0,0.2,0.1,0.4,0.1,0.6c0.1,0.6,0.3,1.2,0.4,1.5c0.6,1.7,2.1,4.3,4.1,4.7
			c0,0,0,0,0,0c0.3,0,0.5,0,0.7,0c0,0,0,0,0.1,0c0,0,0.1,0,0.1-0.1c0,0,0.1-0.1,0.1-0.1c0,0,0,0,0,0c0.1-0.1,0.2-0.2,0.2-0.3
			c0-0.1,0-0.1,0.1-0.2c0.1-0.2,0.1-0.5,0.2-0.8c0-0.1,0-0.2,0-0.3c0-1.4-0.6-3.2-0.9-3.8c0-0.1-0.1-0.2-0.1-0.3
			c-0.1-0.3-0.3-0.6-0.5-1c-0.1-0.1-0.2-0.3-0.3-0.4c-0.1-0.1-0.1-0.2-0.2-0.3c-0.8-1.2-1.8-2.2-3.1-2.2c-0.6,0-0.9,0.3-1.1,0.7
			c-0.1,0.2-0.1,0.3-0.1,0.5c0,0.1,0,0.3,0,0.4c0,0,0,0.1,0,0.1C17.6,10.7,17.6,10.7,17.6,10.8C17.6,10.8,17.6,10.8,17.6,10.8z
			 M18.9,9.7c1.1-0.3,2.1,0.8,2.9,1.9c0.1,0.1,0.2,0.2,0.2,0.4c0.2,0.4,0.4,0.7,0.6,1c0,0,0,0,0,0c0.3,0.7,1.1,2.7,0.9,4
			c0,0.3-0.1,0.5-0.3,0.6c0,0,0,0,0,0c-0.1,0.1-0.1,0.1-0.2,0.2c-0.1,0.1-0.2,0.1-0.3,0.1c0,0,0,0-0.1,0c-1.6,0.4-3-2.2-3.6-3.3
			c-0.2-0.5-0.7-1.6-0.9-2.7c0-0.2-0.1-0.4-0.1-0.6c0-0.1,0-0.1,0-0.2c0-0.1,0-0.1,0-0.2c0-0.2,0-0.3,0.1-0.5c0-0.1,0.1-0.3,0.1-0.4
			C18.3,10,18.6,9.8,18.9,9.7z"/>
		<path class="st1" d="M32.9,4.9c0.3,0.1,0.6,0.1,0.8,0.1c0.3,0,0.6,0,1-0.2c0.4-0.1,0.7-0.3,0.9-0.5c0.2-0.2,0.3-0.4,0.3-0.7
			c0-1-1.4-1.4-2.2-1.4c-0.8,0-2.2,0.4-2.2,1.4c0,0.1,0,0.1,0,0.2C31.7,4.5,32.3,4.8,32.9,4.9z M35.3,3.7c0,0.3-0.1,0.5-0.3,0.6
			c-0.1,0.2-0.3,0.3-0.6,0.3c-0.5,0.2-1.1,0.2-1.6,0c-0.3-0.1-0.6-0.4-0.7-0.7c0-0.1,0-0.2,0-0.3C32.1,2.2,35.3,2.2,35.3,3.7z"/>
		<path class="st1" d="M22.1,4.7c0.1,0,0.1,0.1,0.2,0.1C22.6,5,23,5.1,23.4,5.1c0.1,0,0.1,0,0.2,0c0.4,0,0.8-0.1,1.3-0.3
			c0.5-0.2,0.9-0.5,1.1-0.9c0.1-0.2,0.1-0.3,0.1-0.4c0,0,0,0,0,0c0,0,0,0,0,0c0-0.7-1-1-1.6-1c-0.9,0-2.2,0.3-2.6,1.2
			c-0.2,0.4-0.1,0.6,0.1,0.8C21.9,4.6,22,4.7,22.1,4.7z M25.5,3.5c0,0,0,0.1,0,0.1c0,0,0,0,0,0c0,0,0,0,0,0.1c0,0.4-0.3,0.7-0.8,0.9
			c-0.4,0.2-0.9,0.3-1.3,0.3c-0.3,0-0.7-0.1-0.9-0.3c-0.1,0-0.1-0.1-0.2-0.2c0,0-0.1-0.1-0.1-0.1c0-0.1-0.1-0.1-0.1-0.2
			C22,2.8,25.2,2.1,25.5,3.5z"/>
		<path class="st1" d="M36.7,24.1c-1.3,0.2-2.5,0.1-3.5-0.6c-0.8-0.5-0.9-1.6-2.1-1.3c-1.4,0.4-1.8,1.2-1.7,2.5
			c0.1,0.9,0.2,1.8,0.4,2.6c0.1,0.4,0.2,0.9,0.3,1.3c0,0.1,0.1,0.3,0.1,0.5c0,0.1,0,0.2,0,0.2c0,0.1-0.1,0.1-0.2,0.2
			c-0.4,0.3-1,0.6-1.2,0.8c-2.5,2.1-4.2,5.4-5.6,8.4c0.4,0,0.7,0,1.1-0.1c0.8,0,1.5,0,2.3,0.1c0.2,0,0.4,0.1,0.6,0.1
			c0.2,0,0.4,0,0.6,0.1c1.9,0.3,3.7,1.1,5.3,2.1c0.4-5.2,2.6-10.8,7.3-13.3c2.3-1.2,5.2-1.6,7.5-0.7c0.2,0.1,0.4,0.2,0.6,0.3
			c0.6-0.2,1.1-0.5,1.4-1.1c0.1-0.2,0.2-0.5,0.3-0.7c0,0,0,0,0,0c0,0,0,0,0,0c0.1-0.4,0.2-0.9,0.1-1.3c0-0.7-0.2-1.4-0.5-2
			c-0.1-0.2-0.3-0.5-0.4-0.7c-1-0.5-2.5-0.1-3.6,0.1c-0.2,0-0.4,0.1-0.7,0.1c-0.3,0.1-0.6,0.1-0.9,0.2c-0.2,0-0.4,0.1-0.6,0.1
			c0,0-0.1,0-0.1,0c-0.1,0-0.2,0-0.3,0.1c-0.9,0.2-1.7,0.5-2.6,0.7C39.5,23.4,38.1,23.9,36.7,24.1z"/>
		<path class="st1" d="M48.5,29.4c-0.2-0.2-0.5-0.3-0.7-0.4c-0.1-0.1-0.3-0.1-0.4-0.2c-0.3-0.1-0.7-0.2-1.1-0.2c-0.2,0-0.5,0-0.7,0
			c-0.9,0-1.8,0.2-2.7,0.5c-5.2,1.5-7.9,7.4-9.2,12.5c0.6,0.4,1.1,0.9,1.6,1.4c0.1,0.1,0.3,0.3,0.4,0.5c0.1,0.2,0.3,0.3,0.4,0.5
			c0.1,0.2,0.3,0.3,0.4,0.5c1,1.4,1.7,2.9,2.2,4.5c0.4-3.9,4.3-5.4,7.7-5.7c0.7,0,1.3,0,1.8,0.1c0.5,0.1,1,0.3,1.5,0.5
			c0.9-1.6,1.6-3.2,1.9-5c0.3-1.8,0-3.6-0.5-5.3C50.6,31.9,49.8,30.3,48.5,29.4z"/>
		<path class="st1" d="M54.6,54.7c-0.7-3.3-2-7.5-4.9-9.5c-0.1-0.1-0.2-0.2-0.4-0.2c-0.1-0.1-0.2-0.1-0.3-0.2
			c-0.2-0.1-0.5-0.2-0.8-0.3c-0.7-0.2-1.4-0.3-2.2-0.3c-1.5,0-3,0.3-4.3,1c0,0,0,0,0,0c0.1,1.5,0.1,3-0.2,4.5
			c-0.1,0.4-0.1,0.7-0.2,1.1c-0.1,0.4-0.2,0.8-0.3,1.2c0,0,0,0.1,0,0.1c4.9,0.5,7.8,6.3,7.8,10.8c-1.5-4.4-3.4-8.8-7.8-10.7
			c-0.1,0.3-0.2,0.7-0.4,1c-0.5,1.1-1.1,2.2-1.9,3.1c0.1,1.5-0.1,2.9-0.5,4.3c2.4,0.4,4.6,2.2,6.2,4c1.8,2,3.5,4.4,4.5,6.9
			c-1.6-2-3.1-4-4.8-5.8c-0.5-0.5-1-1.1-1.5-1.6c-0.9,1.5-0.9,3.8-0.9,5.4c-0.1,2.4,0.1,4.9,0.8,7.2c0.5,1.6,1.5,3,1.7,4.7
			c0.3,1.7-0.1,3.7-1.3,5c0.9-1.7,1.1-3.7,0.5-5.5c-0.4-1.2-1.2-2.2-1.6-3.4c-0.9-2.4-1.1-5.1-0.9-7.7c0.1-1.8,0.4-4.3,1.6-5.8
			c-1.3-1.3-2.7-2.4-4.3-3.2c-0.5,1.6-1.2,3.2-2.1,4.6c-0.4,0.7-0.9,1.5-1.4,2.2c2.6,5.5,1.9,12.9-1.4,17.9c2-5.8,2.5-11.7,1.3-17.7
			c-1.4,2-3,4-4.8,5.5c3.6-5.1,7.7-10.5,8.8-16.8c-1.1,1.3-2.5,2.3-4.1,2.7c2.6-1.5,4.2-3.8,5.3-6.4c0.2-0.4,0.3-0.8,0.5-1.3
			c0.1-0.4,0.3-0.8,0.4-1.2c0.5-1.7,0.8-3.4,1.2-5.1c-1.8,1-2.7,2.7-2.8,4.7c0,0.1,0,0.1,0,0.2c0-0.1-0.1-0.2-0.1-0.3
			c0-0.1,0-0.1-0.1-0.2c-0.5-1.9-1.5-3.6-2.9-5.1c-0.1-0.2-0.3-0.3-0.4-0.5c-0.1-0.1-0.3-0.3-0.4-0.4c-0.5-0.4-1-0.8-1.5-1.2
			c-0.1,0-0.1-0.1-0.2-0.1c-0.1,0-0.1-0.1-0.2-0.1c-1-0.6-2-1.1-3.1-1.4c-0.8-0.3-1.7-0.4-2.6-0.5c-0.2,0-0.3,0-0.5,0
			c-0.2,0-0.4,0-0.6,0c-1.3,0-2.5,0-3.8,0.2c0,0,0,0,0,0c0,0,0,0,0,0c-0.2,0-0.4,0.1-0.6,0.1c-0.1,0-0.1,0-0.2,0c-0.1,0-0.1,0-0.2,0
			c-0.1,0-0.2,0-0.3,0.1c-0.4,0.2-0.8,0.3-1.2,0.5c-0.1,0-0.2,0.1-0.3,0.1c-0.1,0-0.2,0.1-0.2,0.1c-2,0.9-4.1,1.9-6,3
			c0,0.6,0,1.1,0.1,1.7c0,0.1,0,0.2,0,0.3c0,0.1,0,0.2,0,0.3c0.4,2,1.4,3.9,3.2,5.2c0.1,0,0.1,0.1,0.2,0.1c2.3-1.7,5.7,0.4,6.6,2.8
			c-2-1.5-3.9-2.8-6.4-2.6c2.5,2.2,3.3,5.7,1.6,8.8c0.5-1.7,0.6-3.7-0.1-5.4c-0.6-1.4-1.5-2.2-2.7-3.1c-1.7-1.3-2.7-3.3-2.9-5.4
			c0-0.1,0-0.2,0-0.3c0-0.1,0-0.2,0-0.3c0-0.6,0-1.2,0.2-1.8c-0.5,0.3-1,0.6-1.5,0.9c-0.1,0.1-0.2,0.1-0.3,0.2c0,0-0.1,0.1-0.1,0.1
			c-0.1,0.1-0.2,0.2-0.4,0.3c0,0,0,0-0.1,0c-0.3,0.2-0.6,0.4-0.9,0.6c-1.2,0.9-2.3,1.9-3.4,2.9c-0.1,0.1-0.3,0.3-0.4,0.4
			C6.6,50.3,7,50.6,7.3,51c0.1,0.1,0.2,0.3,0.3,0.4c0.1,0.1,0.2,0.2,0.3,0.4C9.3,54,9.7,57,9.7,59.5c0,1,0.1,1.9,0.2,2.8
			c2.3,2.4,5,4,7.9,5.7c-2.9-0.2-6.1-2-7.7-4.6c0.7,3.2,2.3,6.2,4.5,8.7c-3.4-2.7-5.7-7.2-5.8-11.5c-0.1-2.1,0.1-4.1-0.4-6.1
			c-0.2-0.7-0.4-1.5-0.8-2.2c-0.1-0.2-0.1-0.3-0.2-0.4c-0.1-0.2-0.2-0.3-0.3-0.5c-0.3-0.5-0.6-0.9-1-1.3c-0.9,1-1.7,2.1-2.1,3.3
			c-0.4,0.9-0.6,1.9-0.5,3c0,0.3,0.1,0.7,0.2,1c0.1,0.2,0.1,0.4,0.2,0.6c0.1,0.2,0.1,0.4,0.2,0.6c0.1,0.3,0.2,0.6,0.3,0.9
			c0.5,1.4,1,2.8,1.5,4.1c1.1,2.9,2.4,5.7,4,8.3c0,0,0,0.1,0.1,0.1c0,0,0,0.1,0,0.1c0.5,0.9,1.1,1.7,1.7,2.6
			c0.9,1.2,1.8,2.3,2.8,3.4c0.8,0.8,1.5,1.5,2.4,2.2c0.1,0.1,0.3,0.2,0.4,0.3c0,0,0,0,0,0c0.1,0.1,0.2,0.2,0.4,0.3
			c0.7,0.6,1.4,1.2,2.2,1.7c0,0,0.1,0.1,0.1,0.1c0,0,0.1,0.1,0.1,0.1c0.6,0.4,1.2,0.8,1.8,1.2c1.5,0.9,3.1,1.8,4.7,2.6c0,0,0,0,0,0
			c0.1,0,0.1,0.1,0.2,0.1c0.1,0.1,0.3,0.1,0.4,0.2c0.1,0.1,0.3,0.1,0.4,0.2c6.7,3.1,15.7,6,21.9,0.9c4.4-3.6,5.8-9.7,6.3-15.1
			C56.4,66.7,56,60.6,54.6,54.7z"/>
	</g>
</g>
</svg>
