<!-- Generator: Adobe Illustrator 19.1.0, SVG Export Plug-In  -->
<svg version="1.1"
	 xmlns="http://www.w3.org/2000/svg" xmlns:xlink="http://www.w3.org/1999/xlink" xmlns:a="http://ns.adobe.com/AdobeSVGViewerExtensions/3.0/"
	 x="0px" y="0px" width="1600px" height="132px" viewBox="0 0 1600 132" style="enable-background:new 0 0 1600 132;"
	 xml:space="preserve">
<style type="text/css">
	.svg_white{fill:#FFFFFF;}
</style>
<defs>
</defs>
<path class="svg_white" d="M1600,132l-284.7-25.9l-17.3,3.1L1030.3,96L1001.1,72l-10.4,11.2l-8.9-24.9L951,81.4l-74.5-40.1L855,52.5
	L801.5,0.9l0.2-0.9l-0.5,0.6l0,0l0,0l-29,34.2l-9.8-2.7l0,0l-1.5-0.4l-0.5,0.8L754,42.9l6.7-11.1l-18.1-4.9l-0.1-0.4l-0.2,0.4
	l-0.1,0l-5.8,13L724.9,36l-4.5,14.7l-22.5-10.8L638,72.1l-24.8-18.5l-9.6,26.7l-5.4-7.3l-0.5-1l-46.4,19.6l-225.7,21l-18.6-6.8
	L0,132 M761.4,34.1l-10.2,20.4l-3.8,7.6l-0.7-5.8L761.4,34.1z M725.5,56.2l-9,20.1l-0.5,1.1l-0.8-1.1l-10-14.5l-3.1-15.8l-0.3-1.2
	L725.5,56.2z M616.7,95.3h-0.5l0.1-6.1l0.1-8.8l0.3-21l20.9,17.5l3.4,2.9l-0.5,0.6l-6.9,8.2l-5.7,6.8H616.7z M656.5,75.5l-1.2,4.8
	l-1.1,4.3l-4.7,3.3l-10.4,7.3l-6.2-1.8l4.5-5l0.4-0.5l1.1-1.2l7.3-6.4l0.8-0.7l0,0l3.1-2.8l1.6-1.4l6.2-5.5L656.5,75.5z M665.9,90.4
	l-3.7-3l-3.6-2.9l1.1-4.2l1.2-4.7l0.3-1.2l1.1,1.2l4.5,4.7l6.4,6.7l7.1,7.5L665.9,90.4z M682.5,75.9l-8.8,4l-1.1,0.5l-0.3,0.1
	l-0.1-0.1l-4.4-4.6l-7.8-8.3l-0.7-0.8l0,0l0,0l0,0l0,0l0,0l-9.8,8.9l-2.5,2.2l-2.6-2.3l-2.6-2.3l55.5-32l4.6,21.6l-10.1,9.1
	L682.5,75.9z M693.4,71.5l9-8.2l8.1,12.9l2.5,4.1l0,0.1l-0.1-0.1l-9.2-4.1L693.4,71.5z M773.6,52.6l-25.1,24.1l-3.7,3.6l-10.3,9.9
	l-2.6,2.5l-0.1,0l0,0.1l-3.9,2.4l-2.6,0.6l0.1,0l-16.7,4.3l4.3-7.4h0l0-0.1l0.1-0.1h-0.1l2-4.2l3.9-8.1l1.9-3.9l0,0l21.4-48
	l3.4,28.2l0,0l0.1,0.6l1,8.4l0-0.1l0,0.1l0.1-0.1l53.8-63.4l-11.3,47l-0.1,0.1l-7.2,6.8l-7.5-4.6L773.6,52.6z M785.9,91.1l-2.7-10.8
	l-0.8-3.1L777,56l3.1,1.5l11.1,19.8l1.7,3l8,14.3L785.9,91.1z M847.6,104.6l-0.5,1.4l0.1-0.4l-0.1,0.4l-0.6-0.2L813,94.5l-0.1-0.1
	l-5.6-14.1l-1.1-2.8l-11.6-28.9l9.3-42.3l48,47.9l0,0.5L852,57l0.7,21.1l0.1,2.2l0.2,6.2l0.1,1.8l-5.8,17.4L847.6,104.6z
	 M854.1,87.6l0.3-7.3l0.1-2.2l0.7-20.1l0-0.7l15.1-9.2l1-0.5l-0.3,1.5l-3.8,19.5l-6.6,9.5l-1.4,2.1l-5.2,7.5L854.1,87.6z
	 M857.5,91.7l7.1-11.4l1.3-2l4.8-7.6l8.6,7.8l2,1.8l0.5,0.5L857.5,91.7z M884.2,80.9l-0.7-0.6l-2-1.8l-9.9-8.9l5.6-26.6l62.9,36.3
	l6.1,3.5l-6.3,5.6l-10.3-9.3l-5.1-4.6l-0.1,0.1l0,0l0,0l-0.9,0.9l-3.3,3.5l-12.1,12.8l-16.6-7.5L884.2,80.9z M916.8,103.9l-0.5,0.4
	l-17.9,5.1l4.2-4.4l19.7-20.7l3.2,12.6L916.8,103.9z M949.6,110.2l-11.5-8.1l-7.2-5.1l-4.6-18l-0.1-0.2l0.3,0.2l23.4,20.6l1.3,1.4
	l6.1,6.9L949.6,110.2z M963.6,110.3l-8-9.6l-8.2-9.8l5.2-4.4l25-21.1l0.4,33.5l0,3.2l0.1,8.1H963.6z M1001.1,89.9l-3.7,5.2l0,0
	l-1.6,2.2l-0.2,0.3l-1,1.4l-0.6-1.2l-5.2-10.4l2.6-2.1l7.9-6.4l1.8,7.5V89.9z"/>
</svg>
