<!-- Generator: Adobe Illustrator 19.1.0, SVG Export Plug-In  -->
<svg version="1.1"
	 xmlns="http://www.w3.org/2000/svg" xmlns:xlink="http://www.w3.org/1999/xlink" xmlns:a="http://ns.adobe.com/AdobeSVGViewerExtensions/3.0/"
	 x="0px" y="0px" width="1014px" height="86.4px" viewBox="0 0 1014 86.4" style="enable-background:new 0 0 1014 86.4;"
	 xml:space="preserve">
<style type="text/css">
	.st0{fill:#FFFFFF;}
</style>
<defs>
</defs>
<path class="st0" d="M372.6,82.1L288,79.3L0,86.4h1014V19.3l-31.7,9.3L957,18.4l-15.3,8L899.4,0l-37.3,26.1l-31.4-7.6l-13.5,10.3
	l-6.4-7.8l-15.5,9.5l0.2-0.1l-40-5l-36.1,11.4l-17.7-25.1l-93.5,37l1.5,0.9l-17.6,0.8l-83.9,4.9l-56,14.8L372.6,82.1z M888.3,51.1
	l8.8-11.6l4.2-2.6l1.8-1.1l-0.3,1L899,49l0,0h-0.1L888.3,51.1z M888.3,32l12-27l35.3,24.6l4.7,3.3l3,2.1l1.8,1.3l1.5-1.4l11.3-10.6
	l19.8,5.7l7.6,2.2l-46,20.8l-14.6-8.6l-7.9-4.7l-5.3-3.2l-8.4-5l-9.1,5.7l-0.2,0.1l-0.1-0.1L888.3,32z M865.7,38.4l-1.8-9l31.8-21.8
	l-13.4,30.1l-0.3,0.7l-14,11.7L865.7,38.4z M817.2,31.9L830.3,21L848,39.2l15.9,16.3l-45.6-9.6l-0.4-5.4L817.2,31.9z M755.5,58.1
	l25.4-15.9l4.3-2.7l24.2-15.2l-6.8,16.9l-2.9,7.3l-30.6,9.1l-4.9,0.2L755.5,58.1z M747,58.4l4.3-14.9l4.7-16.2l36.5,5l-17.7,10.1
	L747,58.4z M696.5,42.9l5.6-24.3l16.5,23.5l0.5,2.8l2.3,14.4l-17-1.7l-6.3-11.8L696.5,42.9z M673.3,40.3l8.8,4.5l1.3,1.6l9.3,11.6
	l-15.2-5.7l-1.9-5.5L673.3,40.3z M671.9,37l-22.6,0.8L699.6,16l-5.5,21.1l-8.3,5.1L671.9,37z M607.8,53.6l5.1-2l5.9-2.3l19.5-7.7
	l9.9,6.4l17.1,11l-47.7-4.5L607.8,53.6z"/>
</svg>
