<!-- Generator: Adobe Illustrator 19.1.0, SVG Export Plug-In  -->
<svg version="1.1"
	 xmlns="http://www.w3.org/2000/svg" xmlns:xlink="http://www.w3.org/1999/xlink" xmlns:a="http://ns.adobe.com/AdobeSVGViewerExtensions/3.0/"
	 x="0px" y="0px" width="1014px" height="86.4px" viewBox="0 0 1014 86.4" style="enable-background:new 0 0 1014 86.4;"
	 xml:space="preserve">
<style type="text/css">
	.svg_white{fill:#FFFFFF;}
</style>
<defs>
</defs>
<path class="svg_white" d="M561.8,70.1l-56-14.8l-83.9-4.9l-17.6-0.8l1.5-0.9l-93.5-37l-17.7,25.1l-36.1-11.4l-40,5l0.2,0.1l-15.5-9.5
	l-6.4,7.8l-13.5-10.3l-31.4,7.6L114.6,0L72.3,26.4L57,18.4L31.7,28.6L0,19.3v67.1h1014l-288-7.1l-84.6,2.8L561.8,70.1z M115.1,49
	l-0.1,0l0,0l-3.8-12.2l-0.3-1l1.8,1.1l4.2,2.6l8.8,11.6L115.1,49z M120.3,37.2l-0.1,0.1l-0.2-0.1l-9.1-5.7l-8.4,5l-5.3,3.2l-7.9,4.7
	l-14.6,8.6l-46-20.8l7.6-2.2l19.8-5.7l11.3,10.6l1.5,1.4l1.8-1.3l3-2.1l4.7-3.3L113.7,5l12,27L120.3,37.2z M146,50.1l-14-11.7
	l-0.3-0.7L118.3,7.6l31.8,21.8l-1.8,9L146,50.1z M196.1,40.5l-0.4,5.4l-45.6,9.6L166,39.2L183.7,21l13.1,10.9L196.1,40.5z
	 M249.8,57.8l-4.9-0.2l-30.6-9.1l-2.9-7.3l-6.8-16.9l24.2,15.2l4.3,2.7l25.4,15.9L249.8,57.8z M239.2,42.4l-17.7-10.1l36.5-5
	l4.7,16.2l4.3,14.9L239.2,42.4z M315.9,45.8l-6.3,11.8l-17,1.7l2.3-14.4l0.5-2.8l16.5-23.5l5.6,24.3L315.9,45.8z M338.4,46.8
	l-1.9,5.5L321.3,58l9.3-11.6l1.3-1.6l8.8-4.5L338.4,46.8z M328.2,42.2l-8.3-5.1l-5.5-21.1l50.3,21.8L342.1,37L328.2,42.2z
	 M396.4,54.5L348.7,59l17.1-11l9.9-6.4l19.5,7.7l5.9,2.3l5.1,2L396.4,54.5z"/>
</svg>
