<!-- Generator: Adobe Illustrator 18.0.0, SVG Export Plug-In  -->
<svg version="1.1"
	 xmlns="http://www.w3.org/2000/svg" xmlns:xlink="http://www.w3.org/1999/xlink" xmlns:a="http://ns.adobe.com/AdobeSVGViewerExtensions/3.0/"
	 x="0px" y="0px" width="144px" height="32px" viewBox="0 0 144 32" enable-background="new 0 0 144 32" xml:space="preserve">
<defs>
</defs>
<rect fill="none" width="144" height="32"/>
<g id="controls_1_">
	<path id="Line_1_" fill="none" stroke="#FFFFFF" d="M98.5,7.5h11"/>
	<path id="Line2_1_" fill="none" stroke="#FFFFFF" d="M98.5,3.5h11"/>
	<path id="Line3_1_" fill="none" stroke="#FFFFFF" d="M98.5,11.5h11"/>
	<path id="Ellipse_1_" fill="#FFFFFF" d="M108,11.5c0-0.8,0.4-1.5,1-1.5s1,0.7,1,1.5s-0.4,1.5-1,1.5S108,12.3,108,11.5z"/>
	<path id="Ellipse2_1_" fill="#FFFFFF" d="M104,7.5c0-0.8,0.4-1.5,1-1.5s1,0.7,1,1.5S105.6,9,105,9S104,8.3,104,7.5z"/>
	<path id="Ellipse3_1_" fill="#FFFFFF" d="M108,3.5c0-0.8,0.4-1.5,1-1.5s1,0.7,1,1.5S109.6,5,109,5S108,4.3,108,3.5z"/>
</g>
<g id="backlight_1_">
	<g id="off_1_">
		<rect x="83" y="21" fill="#333333" stroke="#FFFFFF" width="10" height="6"/>
	</g>
	<g id="on_1_">
		
			<radialGradient id="Ellipse4_2_" cx="-823.1429" cy="504.2" r="0.5" gradientTransform="matrix(14 0 0 -10 11612 5050)" gradientUnits="userSpaceOnUse">
			<stop  offset="0" style="stop-color:#FFFFFF"/>
			<stop  offset="1" style="stop-color:#F2F2F2;stop-opacity:0.2"/>
		</radialGradient>
		<path id="Ellipse4_1_" fill="url(#Ellipse4_2_)" d="M81,8c0-2.8,3.1-5,7-5s7,2.2,7,5s-3.1,5-7,5S81,10.8,81,8z"/>
		<rect x="83" y="5" fill="#333333" stroke="#FFFFFF" width="10" height="6"/>
	</g>
</g>
<g id="loop_1_">
	<g id="on2_1_">
		
			<linearGradient id="SVGID_1_" gradientUnits="userSpaceOnUse" x1="-812.5833" y1="510.0674" x2="-812.5833" y2="507.4921" gradientTransform="matrix(12 0 0 -11.125 9823 5676.5)">
			<stop  offset="0" style="stop-color:#FFFFFF"/>
			<stop  offset="1" style="stop-color:#C8C8C8"/>
		</linearGradient>
		<path fill="url(#SVGID_1_)" d="M73.8,4.2c1.4,0.7,2.4,2.1,2.4,3.8c0,2.3-1.9,4.2-4.2,4.2s-4.2-1.9-4.2-4.2c0-1.7,1-3.1,2.4-3.8
			l-1.3-1.3C67.2,3.9,66,5.8,66,8c0,3.3,2.7,6,6,6s6-2.7,6-6c0-2.2-1.2-4.1-2.9-5.1L73.8,4.2z"/>
		
			<linearGradient id="SVGID_2_" gradientUnits="userSpaceOnUse" x1="-709.1" y1="452.4" x2="-709.1" y2="450.0125" gradientTransform="matrix(5 0 0 -5 3614 2264)">
			<stop  offset="0" style="stop-color:#FFFFFF"/>
			<stop  offset="1" style="stop-color:#C8C8C8"/>
		</linearGradient>
		<path fill="url(#SVGID_2_)" d="M71,2h-5l5,5V2z"/>
	</g>
	<g id="off2_1_">
		<path fill="#A8A8B7" d="M73.8,20.2c1.4,0.7,2.4,2.1,2.4,3.8c0,2.3-1.9,4.2-4.2,4.2s-4.2-1.9-4.2-4.2c0-1.7,1-3.1,2.4-3.8l-1.3-1.3
			c-1.7,1.1-2.9,3-2.9,5.1c0,3.3,2.7,6,6,6s6-2.7,6-6c0-2.2-1.2-4.1-2.9-5.1L73.8,20.2z"/>
		<path fill="#A8A8B7" d="M71,18h-5l5,5V18z"/>
	</g>
</g>
<g id="cc_1_">
	<rect x="49" y="2" display="none" fill="none" stroke="#B0B0B0" width="14" height="12"/>
	<text transform="matrix(1 0 0 1 49 17)" fill="#FFFFFF" font-family="'ArialMT'" font-size="10">cc</text>
	<path fill="none" stroke="#FFFFFF" d="M55,7c-4.7-3.2-4.9,5.9,0,3"/>
	<path fill="none" stroke="#FFFFFF" d="M60,7c-4.7-3.2-4.9,5.9,0,3"/>
	
		<linearGradient id="SVGID_3_" gradientUnits="userSpaceOnUse" x1="-823.1429" y1="513.4167" x2="-823.1429" y2="512.4167" gradientTransform="matrix(14 0 0 -12 11580 6163)">
		<stop  offset="0" style="stop-color:#FFFFFF"/>
		<stop  offset="1" style="stop-color:#C8C8C8"/>
	</linearGradient>
	<path fill="url(#SVGID_3_)" d="M50,3h12v10H50V3z M49,2v12h14V2H49z"/>
	<rect x="49" y="2" fill="none" width="14" height="12"/>
</g>
<g id="volume_1_">
	<g id="no_x25_20sound_1_">
		<rect x="17" y="5" fill="#FFFFFF" width="5" height="6"/>
		<path fill="#FFFFFF" d="M21,5l4-3v12l-4-2.9V5z"/>
	</g>
	<g id="sound_x25_20bars_1_">
		<rect x="17" y="21" fill="#FFFFFF" width="5" height="6"/>
		<path fill="#FFFFFF" d="M21,21l4-3v12l-4-2.9V21z"/>
		<path fill="none" stroke="#FFFFFF" d="M27,18c0,0,3.1-0.6,3,6s-3,6-3,6"/>
		<path fill="none" stroke="#FFFFFF" d="M26,21c0,0,2-0.3,2,3c0,3.3-2,3-2,3"/>
	</g>
</g>
<g id="play_x2F_pause_1_">
	<g id="play_1_">
		<path id="Polygon_1_" fill="#FFFFFF" d="M14,8.5L3,14V3L14,8.5z"/>
	</g>
	<g id="pause_1_">
		<rect x="3" y="18" fill="#FFFFFF" width="3" height="12"/>
		<rect x="10" y="18" fill="#FFFFFF" width="3" height="12"/>
	</g>
</g>
<g id="fullscreen_1_">
	<g id="enter_x25_201_1_">
		
			<linearGradient id="SVGID_4_" gradientUnits="userSpaceOnUse" x1="-709.1" y1="452.4" x2="-709.1" y2="450.0125" gradientTransform="matrix(5 0 0 -5 3582 2264)">
			<stop  offset="0" style="stop-color:#FFFFFF"/>
			<stop  offset="1" style="stop-color:#C8C8C8"/>
		</linearGradient>
		<path fill="url(#SVGID_4_)" d="M34,2h5l-5,5V2z"/>
		
			<linearGradient id="SVGID_5_" gradientUnits="userSpaceOnUse" x1="-709.1" y1="453.8" x2="-709.1" y2="451.4125" gradientTransform="matrix(5 0 0 -5 3582 2271)">
			<stop  offset="0" style="stop-color:#FFFFFF"/>
			<stop  offset="1" style="stop-color:#C8C8C8"/>
		</linearGradient>
		<path fill="url(#SVGID_5_)" d="M34,14h5l-5-5V14z"/>
		
			<linearGradient id="SVGID_6_" gradientUnits="userSpaceOnUse" x1="-709.1" y1="452.4" x2="-709.1" y2="450.0125" gradientTransform="matrix(5 0 0 -5 3589 2264)">
			<stop  offset="0" style="stop-color:#FFFFFF"/>
			<stop  offset="1" style="stop-color:#C8C8C8"/>
		</linearGradient>
		<path fill="url(#SVGID_6_)" d="M46,2h-5l5,5V2z"/>
		
			<linearGradient id="SVGID_7_" gradientUnits="userSpaceOnUse" x1="-709.1" y1="453.8" x2="-709.1" y2="451.4125" gradientTransform="matrix(5 0 0 -5 3589 2271)">
			<stop  offset="0" style="stop-color:#FFFFFF"/>
			<stop  offset="1" style="stop-color:#C8C8C8"/>
		</linearGradient>
		<path fill="url(#SVGID_7_)" d="M46,14h-5l5-5V14z"/>
	</g>
	<g id="exit_1_">
		
			<linearGradient id="SVGID_8_" gradientUnits="userSpaceOnUse" x1="-664.75" y1="426.25" x2="-664.75" y2="423.2656" gradientTransform="matrix(4 0 0 -4 2703 1723)">
			<stop  offset="0" style="stop-color:#FFFFFF"/>
			<stop  offset="1" style="stop-color:#C8C8C8"/>
		</linearGradient>
		<path fill="url(#SVGID_8_)" d="M42,22h4l-4-4V22z"/>
		
			<linearGradient id="SVGID_9_" gradientUnits="userSpaceOnUse" x1="-664.75" y1="426.25" x2="-664.75" y2="423.8625" gradientTransform="matrix(4 0 0 -4 2695 1723)">
			<stop  offset="0" style="stop-color:#FFFFFF"/>
			<stop  offset="1" style="stop-color:#C8C8C8"/>
		</linearGradient>
		<path fill="url(#SVGID_9_)" d="M38,22v-4l-4,4H38z"/>
		
			<linearGradient id="SVGID_10_" gradientUnits="userSpaceOnUse" x1="-664.75" y1="428.25" x2="-664.75" y2="425.25" gradientTransform="matrix(4 0 0 -4 2695 1731)">
			<stop  offset="0" style="stop-color:#FFFFFF"/>
			<stop  offset="1" style="stop-color:#C8C8C8"/>
		</linearGradient>
		<path fill="url(#SVGID_10_)" d="M38,26h-4l4,4V26z"/>
		
			<linearGradient id="SVGID_11_" gradientUnits="userSpaceOnUse" x1="-664.75" y1="428.25" x2="-664.75" y2="425.1406" gradientTransform="matrix(4 0 0 -4 2703 1731)">
			<stop  offset="0" style="stop-color:#FFFFFF"/>
			<stop  offset="1" style="stop-color:#C8C8C8"/>
		</linearGradient>
		<path fill="url(#SVGID_11_)" d="M42,26v4l4-4H42z"/>
	</g>
</g>
<g id="stop_1_">
	
		<linearGradient id="SVGID_12_" gradientUnits="userSpaceOnUse" x1="-797.8" y1="504.7" x2="-797.8" y2="503.7" gradientTransform="matrix(10 0 0 -10 8098 5050)">
		<stop  offset="0" style="stop-color:#FFFFFF"/>
		<stop  offset="1" style="stop-color:#C8C8C8"/>
	</linearGradient>
	<rect x="115" y="3" fill="url(#SVGID_12_)" width="10" height="10"/>
</g>
<g id="chooser_1_">
	
		<linearGradient id="SVGID_13_" gradientUnits="userSpaceOnUse" x1="-819.1234" y1="517.2728" x2="-819.1234" y2="516.2728" gradientTransform="matrix(13.1648 0 0 -13.1648 10919.5908 6811.2114)">
		<stop  offset="0" style="stop-color:#FFFFFF"/>
		<stop  offset="0.9944" style="stop-color:#C8C8C8"/>
	</linearGradient>
	<path fill="url(#SVGID_13_)" d="M135.2,6.2c1-0.4,2.2,0.1,2.6,1.1c0.4,1-0.1,2.2-1.1,2.6c-1,0.4-2.2-0.1-2.6-1.1
		S134.2,6.6,135.2,6.2z M133.3,1.4L136,4l2.7-2.6l0.1,3.8l3.8,0.1L140,8l2.6,2.7l-3.8,0.1l-0.1,3.8L136,12l-2.7,2.6l-0.1-3.8
		l-3.8-0.1L132,8l-2.6-2.7l3.8-0.1L133.3,1.4z"/>
</g>
</svg>
