<!-- Generator: Adobe Illustrator 19.1.0, SVG Export Plug-In  -->
<svg version="1.1"
	 xmlns="http://www.w3.org/2000/svg" xmlns:xlink="http://www.w3.org/1999/xlink" xmlns:a="http://ns.adobe.com/AdobeSVGViewerExtensions/3.0/"
	 x="0px" y="0px" width="1900px" height="64.5px" viewBox="0 0 1920 64.5" enable-background="new 0 0 1920 64.5"
	 xml:space="preserve">
<defs>
</defs>
<g>
	<g>
		<path fill="#FFFFFF" d="M980.9,32.3v9.8c0,2.6-1.4,5-3.6,6.3l-17,9.8c-2.2,1.3-5,1.3-7.3,0l-17-9.8c-2.2-1.3-3.6-3.7-3.6-6.3v-9.8
			H0v32.3h1920V32.3H980.9z"/>
	</g>
</g>
<g>
	<path id="XMLID_5_" fill="#FFFFFF" d="M981.4,12.9L961,1.2c-2.7-1.6-6-1.6-8.7,0l-20.4,11.8c-2.7,1.6-4.4,4.4-4.4,7.6V44
		c0,3.1,1.7,6,4.4,7.6l20.4,11.8c2.7,1.6,6,1.6,8.7,0l20.4-11.8c2.7-1.6,4.4-4.4,4.4-7.6V20.5C985.8,17.4,984.1,14.5,981.4,12.9z
		 M980.9,42.1c0,2.6-1.4,5-3.6,6.3l-17,9.8c-2.2,1.3-5,1.3-7.3,0l-17-9.8c-2.2-1.3-3.6-3.7-3.6-6.3V22.5c0-2.6,1.4-5,3.6-6.3l17-9.8
		c2.2-1.3,5-1.3,7.3,0l17,9.8c2.2,1.3,3.6,3.7,3.6,6.3V42.1z"/>
	<path id="XMLID_4_" fill="#00A4C0" d="M957.9,19l9.1,5.2c1.7,1,3.8-0.2,3.8-2.2v-0.9c0-0.9-0.5-1.7-1.3-2.2l-11.6-6.7
		c-0.8-0.5-1.8-0.5-2.5,0l-11.6,6.7c-0.8,0.5-1.3,1.3-1.3,2.2V22c0,2,2.1,3.2,3.8,2.2l9.1-5.2C956.2,18.5,957.2,18.5,957.9,19z"/>
	<path id="XMLID_3_" fill="#FFFFFF" d="M957.9,32.2l9.1,5.2c1.7,1,3.8-0.2,3.8-2.2v-0.9c0-0.9-0.5-1.7-1.3-2.2l-11.6-6.7
		c-0.8-0.5-1.8-0.5-2.5,0l-11.6,6.7c-0.8,0.5-1.3,1.3-1.3,2.2v0.9c0,2,2.1,3.2,3.8,2.2l9.1-5.2C956.2,31.8,957.2,31.8,957.9,32.2z"
		/>
	<path id="XMLID_2_" fill="#FFFFFF" d="M956.7,51.9L956.7,51.9c-1.6,0-2.9-1.3-2.9-2.9V30.2c0-1.6,1.3-2.9,2.9-2.9l0,0
		c1.6,0,2.9,1.3,2.9,2.9V49C959.6,50.6,958.3,51.9,956.7,51.9z"/>
</g>
</svg>
