<!-- Generator: Adobe Illustrator 19.1.0, SVG Export Plug-In  -->
<svg version="1.1"
	 xmlns="http://www.w3.org/2000/svg" xmlns:xlink="http://www.w3.org/1999/xlink" xmlns:a="http://ns.adobe.com/AdobeSVGViewerExtensions/3.0/"
	 x="0px" y="0px" width="87.1px" height="96.5px" viewBox="0 0 87.1 96.5" enable-background="new 0 0 87.1 96.5"
	 xml:space="preserve">
<defs>
</defs>
<g>
	<path id="XMLID_7_" fill="#252525" d="M79.8,62.9c0,3.9-2.1,7.5-5.4,9.4L49,87c-3.4,1.9-7.5,1.9-10.9,0L12.7,72.4
		c-3.4-1.9-5.4-5.5-5.4-9.4V33.6c0-3.9,2.1-7.5,5.4-9.4L38.1,9.5c3.4-1.9,7.5-1.9,10.9,0l25.4,14.7c3.4,1.9,5.4,5.5,5.4,9.4V62.9z"
		/>
	<path id="XMLID_4_" fill="#1C1C1C" d="M80.6,19.4L50.1,1.7c-4-2.3-9-2.3-13,0L6.5,19.4C2.5,21.7,0,26,0,30.7v35.2
		c0,4.7,2.5,9,6.5,11.3L37,94.8c4,2.3,9,2.3,13,0l30.5-17.6c4-2.3,6.5-6.6,6.5-11.3V30.7C87.1,26,84.6,21.7,80.6,19.4z M79.8,62.9
		c0,3.9-2.1,7.5-5.4,9.4L49,87c-3.4,1.9-7.5,1.9-10.9,0L12.7,72.4c-3.4-1.9-5.4-5.5-5.4-9.4V33.6c0-3.9,2.1-7.5,5.4-9.4L38.1,9.5
		c3.4-1.9,7.5-1.9,10.9,0l25.4,14.7c3.4,1.9,5.4,5.5,5.4,9.4V62.9z"/>
	<path id="XMLID_3_" fill="#1C1C1C" d="M45.4,28.4L59,36.2c2.5,1.5,5.7-0.4,5.7-3.3v-1.3c0-1.4-0.7-2.6-1.9-3.3l-17.4-10
		c-1.2-0.7-2.6-0.7-3.8,0l-17.4,10c-1.2,0.7-1.9,1.9-1.9,3.3v1.3c0,2.9,3.2,4.8,5.7,3.3l13.5-7.8C42.8,27.7,44.3,27.7,45.4,28.4z"/>
	<path id="XMLID_2_" fill="#1C1C1C" d="M45.4,48.2L59,56c2.5,1.5,5.7-0.4,5.7-3.3v-1.3c0-1.4-0.7-2.6-1.9-3.3l-17.4-10
		c-1.2-0.7-2.6-0.7-3.8,0l-17.4,10c-1.2,0.7-1.9,1.9-1.9,3.3v1.3c0,2.9,3.2,4.8,5.7,3.3l13.5-7.8C42.8,47.5,44.3,47.5,45.4,48.2z"/>
	<path id="XMLID_1_" fill="#1C1C1C" d="M45,77.6h-2.9c-1.6,0-2.9-1.3-2.9-2.9V43.8c0-1.6,1.3-2.9,2.9-2.9H45c1.6,0,2.9,1.3,2.9,2.9
		v30.9C47.9,76.3,46.6,77.6,45,77.6z"/>
</g>
</svg>
