<!-- Generator: Adobe Illustrator 18.1.1, SVG Export Plug-In  -->
<svg version="1.1"
	 xmlns="http://www.w3.org/2000/svg" xmlns:xlink="http://www.w3.org/1999/xlink" xmlns:a="http://ns.adobe.com/AdobeSVGViewerExtensions/3.0/"
	 x="0px" y="0px" width="599.6px" height="99.6px" viewBox="0 0 599.6 99.6" enable-background="new 0 0 599.6 99.6"
	 xml:space="preserve">
<defs>
</defs>
<path fill="#FFCA29" d="M361.2,82c-21.8,0-43.7-0.6-65.5-1.3c-46.9-1.7-94.1-6.7-140.5-14c-23.4-3.7-46.4-7.7-69.4-13.2
	c-22.7-5.5-45.3-12-67.4-19.8c-3.3-1.1-6.5-2.4-9.7-3.7C7.1,29.5,4.5,28,2.6,28c-0.1,0-0.1,0-0.2,0c-2.2,0.1-3.2,1.4-1.8,2.8
	c1.3,1.4,4.3,2.4,5.9,3.3c10.2,5.8,20.8,10.7,31.7,15.1c22,8.8,45,15.4,68.1,20.6c92.4,20.8,187.4,28.9,282,29.7c0.6,0,1.2,0,1.8,0
	c4.9,0,9.8-0.2,14.7-0.3c39.8-0.9,79.7-2.6,118.9-10c21-4,44.5-8.1,62.5-20.5c7.6-5.3,15.7-13.7,12.9-23.9
	c-2.5-9.4-12.1-16.7-19.9-21.7c-9.4-6.1-19.5-10.5-29.8-14.7c-5.7-2.3-11.4-4.6-17.2-6.6c-1.7-0.6-4-1.8-6-1.8c-0.3,0-0.7,0-1,0.1
	c-2.8,0.7-1.8,2.1,0,3.3c9,5.8,19.4,9.3,27.8,16.3c6.9,5.7,14.7,15.8,9.8,25c-4.3,8.3-14.7,12.9-23,16.1c-10.2,4-20.9,6.8-31.6,9
	c-23.2,4.8-46.7,7.5-70.2,9.4C412.4,81.3,386.8,82,361.2,82z"/>
</svg>
