<!-- Generator: Adobe Illustrator 17.1.0, SVG Export Plug-In  -->
<svg version="1.1"
	 xmlns="http://www.w3.org/2000/svg" xmlns:xlink="http://www.w3.org/1999/xlink" xmlns:a="http://ns.adobe.com/AdobeSVGViewerExtensions/3.0/"
	 x="0px" y="0px" width="112.7px" height="31.8px" viewBox="0 0 112.7 31.8" enable-background="new 0 0 112.7 31.8"
	 xml:space="preserve">
<defs>
</defs>
<g>
	<path fill="#FFFFFF" d="M2.1,23.6c0.5-0.1,0.9-0.1,1.4-0.1c0.4,0,0.9,0.1,1.3,0.2c0.4,0.1,0.7,0.3,1,0.5c1.7,1.2,3.2,1.9,4.6,2.2
		c1.4,0.3,2.4,0.2,3.1-0.3c0.3-0.2,0.4-0.4,0.3-0.6c-0.1-0.3-0.3-0.5-0.7-0.9c-0.4-0.3-0.8-0.7-1.4-1.1c-0.5-0.4-1.1-0.8-1.7-1.2
		c-0.6-0.4-1.2-0.9-1.9-1.3c-0.6-0.5-1.2-0.9-1.6-1.4c-0.5-0.5-1-1-1.4-1.7c-0.4-0.6-0.6-1.3-0.8-2c-0.1-0.7-0.1-1.5,0-2.3
		c0.1-0.8,0.4-1.7,0.9-2.6C5.5,10.3,6,9.5,6.7,8.6C7.3,7.7,8,6.9,8.8,6.1c0.8-0.8,1.7-1.6,2.6-2.3c0.9-0.7,1.8-1.3,2.8-1.8
		c0.3-0.2,0.7-0.4,1.1-0.6c0.5-0.2,1-0.3,1.5-0.4c0.6-0.1,1.1-0.1,1.8-0.1c0.6,0,1.3,0.1,1.9,0.3c0.9,0.4,1.9,0.8,2.8,1.3
		C24.2,3,25,3.6,25.6,4.2c0.4,0.4,0.6,0.8,0.8,1.3c0.2,0.4,0.3,0.8,0.3,1.2c0,0.4,0,0.8,0,1.2c-0.1,0.4-0.1,0.7-0.2,1.1
		c-0.2,0.6-0.4,1.2-0.7,2c-0.3,0.7-0.6,1.5-0.9,2.2c-0.3,0.8-0.7,1.5-1.1,2.2c-0.4,0.7-0.7,1.3-1,1.7c-0.3,0.4-0.7,0.7-1,0.8
		c-0.3,0.1-0.7,0.1-1.2-0.2c-2.9-1-4-2.5-3.5-4.4c0.1-0.4,0.3-0.8,0.5-1.4c0.2-0.5,0.4-1,0.6-1.5c0.2-0.5,0.4-1,0.6-1.5
		c0.2-0.5,0.3-0.8,0.3-1.1c0-0.3-0.1-0.4-0.2-0.5c-0.2-0.1-0.5,0.1-1,0.4c-0.4,0.2-0.9,0.5-1.4,0.9c-0.5,0.4-1,0.9-1.6,1.4
		c-0.5,0.5-1,1.1-1.4,1.7c-0.4,0.6-0.7,1.2-1,1.8c-0.2,0.6-0.3,1.2-0.3,1.8c0,0.6,0.3,1.1,0.7,1.6c0.5,0.6,1.2,1.2,1.9,1.7
		c0.7,0.5,1.4,1.1,2.1,1.6c0.7,0.5,1.4,1,2,1.5c0.6,0.5,1.1,1,1.5,1.5c0.4,0.5,0.6,1.1,0.6,1.6c0,0.6-0.2,1.2-0.7,1.9
		c-0.3,0.5-0.7,1-1.2,1.5c-0.5,0.5-1.1,1-1.9,1.5c-0.8,0.5-1.6,0.8-2.7,1.2c-1,0.3-2.2,0.5-3.5,0.5c-1.8,0-3.5-0.3-5.1-1
		c-1.6-0.7-3.1-1.9-4.7-3.5C0.4,26,0,25.4,0,24.9c0-0.4,0.3-0.7,0.8-1C1.2,23.8,1.7,23.7,2.1,23.6z"/>
	<path fill="#FFFFFF" d="M31.2,30.1c-1.5,0.3-3,0.5-4.4,0.8c-0.5,0.1-0.9,0.2-1.3,0.2c-0.3,0-0.6,0-0.9-0.1
		c-0.2-0.1-0.4-0.1-0.6-0.2c-0.2-0.1-0.3-0.2-0.4-0.3c-0.3-0.2-0.6-0.5-0.9-0.7c-0.3-0.3-0.6-0.6-1.1-1c-0.3-0.3-0.6-0.7-0.7-1
		c-0.1-0.4-0.1-0.9,0.1-1.4c0.2-0.9,0.5-1.9,0.9-3.1c0.4-1.2,0.8-2.5,1.2-3.8c0.5-1.4,1-2.8,1.5-4.2c0.5-1.5,1.1-2.9,1.6-4.4
		C26.9,9.4,27.5,8,28,6.7c0.6-1.3,1.1-2.6,1.6-3.7c0.3-0.6,0.7-1,1.1-1.1c0.4-0.1,0.9-0.1,1.5,0.1c0.7,0.2,1.4,0.4,2.1,0.7
		c0.7,0.3,1.4,0.7,1.9,1.1c0.5,0.4,0.8,0.8,0.9,1.1c0.1,0.3,0,0.7-0.3,1.3c-0.7,1.3-1.4,2.8-2.1,4.4c-0.7,1.6-1.5,3.2-2.2,4.9
		c-0.8,1.7-1.5,3.3-2.2,5c-0.7,1.7-1.4,3.3-2,4.8c1.1-0.2,2-0.3,3-0.4c0.9-0.1,1.9-0.2,3-0.2c0.6,0,1.1,0,1.4,0.1
		c0.3,0.1,0.6,0.4,0.7,0.8c0.2,0.4,0.3,0.8,0.4,1.2c0.1,0.4,0.2,0.8,0.2,1.2c0.1,0.5,0.1,0.8,0,0.9c-0.1,0.2-0.5,0.3-1.2,0.4
		C34.2,29.6,32.8,29.8,31.2,30.1z"/>
	<path fill="#FFFFFF" d="M50.4,25.1c-1.7,0.2-3.2,0.5-4.6,0.8c-0.6,0.9-1.1,1.7-1.6,2.4c-0.5,0.7-0.9,1.5-1.4,2.2
		c-0.2,0.4-0.5,0.6-0.8,0.7c-0.3,0.1-0.6,0-1.1-0.2c-0.3-0.1-0.6-0.2-0.9-0.4c-0.3-0.1-0.6-0.3-1-0.5c-0.2-0.2-0.4-0.3-0.6-0.4
		c-0.2-0.1-0.3-0.3-0.4-0.4c-0.1-0.2-0.1-0.4-0.1-0.7c0-0.3,0.2-0.6,0.4-1.1c0.8-1.5,1.8-3.3,3-5.4c1.2-2.1,2.5-4.2,3.9-6.4
		c1.4-2.2,2.8-4.3,4.2-6.5c1.4-2.1,2.7-4,4-5.7c0.4-0.6,1-1.1,1.6-1.5c0.6-0.4,1.4-0.5,2.5-0.4c0.9,0,1.7,0.1,2.4,0.2
		c0.7,0.1,1.3,0.2,1.9,0.3c0.6,0.1,1.1,0.3,1.6,0.4c0.5,0.2,1,0.3,1.5,0.4c0.6,0.2,1,0.6,1.2,1C66.2,4.5,66.2,5,66,5.6
		C65.6,7.2,65.2,9,64.7,11c-0.4,2-0.9,4.1-1.3,6.4c-0.4,2.2-0.9,4.4-1.3,6.6c-0.4,2.2-0.8,4.3-1.1,6.2c-0.1,0.4-0.2,0.7-0.4,0.8
		c-0.2,0.2-0.6,0.2-1.2,0.2c-0.6,0-1.1,0-1.6,0c-0.5,0-1-0.1-1.5-0.3c-0.5-0.2-0.9-0.4-1-0.6c-0.2-0.2-0.2-0.7-0.2-1.3
		c0-0.6,0.1-1.3,0.1-2.1c0.1-0.8,0.1-1.6,0.2-2.5C53.9,24.6,52.1,24.8,50.4,25.1z M53.1,19.4c1-0.1,2.1-0.2,3.1-0.3
		c0.3-1.8,0.6-3.6,0.9-5.4c0.3-1.8,0.6-3.6,1-5.3c-1.2,1.6-2.5,3.4-3.8,5.3c-1.4,2-2.8,4-4.2,6.1C51,19.6,52,19.5,53.1,19.4z"/>
	<path fill="#FFFFFF" d="M72.1,19c-0.5,1.5-1,2.9-1.5,4.3c-0.5,1.4-0.9,2.7-1.3,3.9c-0.4,1.2-0.7,2.3-1,3.2
		c-0.2,0.4-0.4,0.7-0.6,0.8c-0.2,0.1-0.6,0.1-1.1,0c-0.5-0.1-1-0.2-1.5-0.4c-0.5-0.2-0.9-0.4-1.4-0.6c-0.5-0.3-0.8-0.6-1-0.9
		s-0.1-0.8,0-1.3c0.2-0.9,0.4-1.9,0.7-3.2c0.3-1.2,0.6-2.6,1.1-4.1c0.4-1.5,0.8-3,1.3-4.5c0.5-1.6,0.9-3.1,1.4-4.6
		c0.5-1.5,0.9-3,1.4-4.3c0.5-1.4,0.9-2.6,1.3-3.6C70.2,3,70.6,2.6,71,2.4c0.4-0.2,1-0.2,1.8-0.1c1.2,0.2,2.2,0.4,3,0.6
		c0.8,0.2,1.6,0.5,2.4,0.8c0.5,0.2,0.9,0.4,1.2,0.6c0.3,0.2,0.5,0.5,0.6,0.8C80,5.3,80.1,5.6,80.1,6c0,0.3,0,0.7,0.1,1.1
		c0,0.2-0.1,0.4-0.1,0.7c0,0.3,0,0.8-0.1,1.5c0,0.7-0.1,1.7-0.1,3c0,1.3-0.1,3.1-0.1,5.4c0.5-0.8,1.1-1.7,1.7-2.6
		c0.6-0.9,1.3-1.9,2-2.9c0.7-1,1.4-2,2.1-3c0.7-1,1.4-1.9,2.1-2.8c0.7-1,1.3-1.8,1.8-2.5c0.5-0.6,1-1.1,1.4-1.5
		c0.5-0.3,1-0.5,1.5-0.6c0.5,0,1.1,0,1.9,0.3c0.9,0.2,1.8,0.5,2.8,0.9c1,0.3,1.9,0.7,2.8,1.2c0.6,0.3,0.9,0.7,1,1.1
		c0.1,0.4,0,1-0.4,1.7c-0.5,1-1.1,2.2-1.8,3.6c-0.7,1.3-1.3,2.8-2,4.2c-0.7,1.5-1.4,3-2.1,4.5c-0.7,1.5-1.4,3-2,4.4
		c-0.6,1.4-1.2,2.7-1.7,3.8c-0.5,1.2-0.9,2.1-1.3,2.9c-0.2,0.4-0.5,0.7-0.7,0.9c-0.2,0.2-0.6,0.2-1.2,0.1c-0.5-0.1-1-0.2-1.5-0.4
		c-0.5-0.2-0.9-0.3-1.3-0.6c-0.5-0.2-0.8-0.5-0.9-0.9C83.9,29,84,28.6,84.2,28c0.2-0.7,0.5-1.5,0.9-2.6c0.4-1,0.8-2.2,1.3-3.5
		c0.5-1.3,1-2.6,1.6-4c0.6-1.4,1.2-2.7,1.8-4c-0.9,1.1-1.8,2.4-2.8,3.7c-1,1.3-1.9,2.7-2.9,4c-0.9,1.3-1.8,2.5-2.6,3.7
		c-0.8,1.2-1.4,2.1-1.9,2.9c-0.2,0.2-0.3,0.4-0.4,0.6c-0.1,0.1-0.2,0.2-0.3,0.3c-0.1,0.1-0.3,0.1-0.5,0.1c-0.2,0-0.4,0-0.7-0.1
		c-0.9-0.2-1.6-0.4-2.2-0.6c-0.2-0.1-0.4-0.2-0.6-0.3c-0.2-0.1-0.3-0.2-0.4-0.4c-0.1-0.2-0.2-0.4-0.2-0.6c-0.1-0.2-0.1-0.6-0.2-0.9
		c-0.2-1.6-0.3-3.4-0.3-5.5c0-2.1,0-4.2,0-6.4C73.2,16,72.6,17.5,72.1,19z"/>
	<path fill="#FFFFFF" d="M95.1,27.2c0.3-0.4,0.7-0.8,1.1-1c0.5-0.3,1-0.5,1.6-0.5c0.6-0.1,1.2,0,1.9,0.2c0.6,0.2,1,0.4,1.4,0.7
		c0.3,0.3,0.6,0.6,0.7,1c0.1,0.4,0.1,0.7,0.1,1.1c-0.1,0.4-0.1,0.7-0.3,0.9c-0.1,0.2-0.3,0.4-0.5,0.7c-0.2,0.3-0.5,0.5-0.8,0.8
		c-0.3,0.2-0.7,0.4-1.1,0.6c-0.4,0.2-0.9,0.2-1.4,0.2c-1.1,0-1.9-0.3-2.5-0.8c-0.6-0.6-0.8-1.4-0.6-2.4
		C94.6,28.1,94.8,27.6,95.1,27.2z M112.7,3.3c0.1,0.4,0,0.9-0.3,1.5c-0.9,1.7-1.7,3.3-2.6,5c-0.9,1.7-1.7,3.4-2.5,5
		c-0.8,1.7-1.6,3.2-2.3,4.8c-0.7,1.5-1.3,3-1.9,4.3c-0.2,0.5-0.4,0.8-0.7,0.9c-0.3,0.1-0.6,0.1-1.1,0c-0.6-0.1-1.2-0.2-1.7-0.4
		c-0.5-0.2-1-0.4-1.4-0.6c-0.5-0.3-0.8-0.6-0.9-0.9c-0.1-0.3-0.1-0.8,0.2-1.4c0.4-1.3,0.9-2.8,1.6-4.5c0.6-1.7,1.3-3.5,2-5.3
		c0.7-1.8,1.5-3.6,2.2-5.4c0.7-1.8,1.4-3.4,2.1-4.8c0.3-0.7,0.6-1.1,1-1.3c0.4-0.2,0.9-0.1,1.6,0.1c0.6,0.2,1.3,0.4,2.1,0.8
		c0.7,0.3,1.4,0.7,1.9,1.1C112.3,2.5,112.6,2.9,112.7,3.3z"/>
</g>
</svg>
